STARTFONT 2.1
COMMENT
COMMENT Converted from OpenType font "Q:\font stuff\winfont\EUROCAPS.TTF" by "otf2bdf 3.0".
COMMENT
FONT -FreeType-Euro Caps-Medium-R-Normal--52-520-72-72-P-226-ISO10646-1
SIZE 52 72 72
FONTBOUNDINGBOX 71 56 -6 -13
STARTPROPERTIES 19
FOUNDRY "FreeType"
FAMILY_NAME "Euro Caps"
WEIGHT_NAME "Medium"
SLANT "R"
SETWIDTH_NAME "Normal"
ADD_STYLE_NAME ""
PIXEL_SIZE 52
POINT_SIZE 520
RESOLUTION_X 72
RESOLUTION_Y 72
SPACING "P"
AVERAGE_WIDTH 226
CHARSET_REGISTRY "ISO10646"
CHARSET_ENCODING "1"
FONT_ASCENT 46
FONT_DESCENT 16
COPYRIGHT "©2010"
_OTF_FONTFILE "Q:\font stuff\winfont\EUROCAPS.TTF"
_OTF_PSNAME "EuroCaps"
ENDPROPERTIES
CHARS 259
STARTCHAR 0020
ENCODING 32
SWIDTH 307 0
DWIDTH 16 0
BBX 0 0 0 0
BITMAP
ENDCHAR
STARTCHAR 0021
ENCODING 33
SWIDTH 269 0
DWIDTH 14 0
BBX 5 35 4 0
BITMAP
F8
F8
F8
F8
F8
F8
F8
F8
F8
F8
F8
F8
F8
F8
F8
F8
F8
F8
F8
F8
F8
F8
F8
F8
F0
00
00
00
00
00
F8
F8
F8
F8
F8
ENDCHAR
STARTCHAR 0022
ENCODING 34
SWIDTH 326 0
DWIDTH 17 0
BBX 11 14 3 21
BITMAP
E0E0
E0E0
E0E0
E0E0
E0E0
E0E0
E0E0
E0E0
E0E0
E0E0
E0E0
E0E0
E0E0
E0E0
ENDCHAR
STARTCHAR 0023
ENCODING 35
SWIDTH 519 0
DWIDTH 27 0
BBX 23 29 2 0
BITMAP
00E0F0
01C0E0
01C0E0
01C0E0
01C0E0
01C0E0
01C1C0
0381C0
7FFFFE
7FFFFE
7FFFFE
0381C0
0383C0
070380
070380
070380
070380
FFFFFC
FFFFF8
FFFFF8
0E0700
0E0700
0E0700
0E0700
0E0700
0E0F00
1C0E00
1C0E00
1C0E00
ENDCHAR
STARTCHAR 0024
ENCODING 36
SWIDTH 576 0
DWIDTH 30 0
BBX 25 36 3 -3
BITMAP
001C0000
001C0000
001C0000
07FFF000
3FFFFC00
7FFFFE00
7F1CFE00
F81C0F00
F01C0F00
F01C0F00
F01C0F00
F01C0F00
F01C0000
F01C0000
F81C0000
7C1C0000
7FFFF000
3FFFFC00
0FFFFE00
001DFF00
001C0F00
001C0780
001C0780
F01C0780
F01C0780
F01C0780
F01C0780
F01C0F80
F81C1F00
7FFFFF00
7FFFFE00
1FFFFC00
07FF8000
001C0000
001C0000
001C0000
ENDCHAR
STARTCHAR 0025
ENCODING 37
SWIDTH 884 0
DWIDTH 46 0
BBX 42 30 2 0
BITMAP
1FFE001E0000
7FFF001C0000
7FFF803C0000
F003C0380000
E001C0780000
E001C0700000
E001C0E00000
E001C1E00000
E001C1C00000
E001C3C00000
E001C3800000
E001C7800000
E001C71FFE00
E001CF7FFF00
F003CE7FFF80
7FFF9CF003C0
3FFFBCE001C0
1FFE38E001C0
000078E001C0
000070E001C0
0000F0E001C0
0000E0E001C0
0001E0E001C0
0001C0E001C0
000380E001C0
000380E001C0
000700F003C0
000F007FFF80
000E003FFF80
001E001FFE00
ENDCHAR
STARTCHAR 0026
ENCODING 38
SWIDTH 634 0
DWIDTH 33 0
BBX 29 30 3 -1
BITMAP
00FF8000
03FFE000
07FFF000
07FFF000
0F80F800
0F007800
0F007800
0F007800
0F007800
0F807800
0F800000
07E00000
03F00000
1FF80000
7FFC0000
7C7E0000
F81F8F00
F00FCF00
F007EF00
F003FF00
F001FF00
F0007F00
F0003F00
F0001F80
F8001FC0
7C003FE0
7FFFFFF0
3FFFFCF8
1FFFF870
07FFE020
ENDCHAR
STARTCHAR 0027
ENCODING 39
SWIDTH 173 0
DWIDTH 9 0
BBX 3 14 3 21
BITMAP
E0
E0
E0
E0
E0
E0
E0
E0
E0
E0
E0
E0
E0
E0
ENDCHAR
STARTCHAR 0028
ENCODING 40
SWIDTH 326 0
DWIDTH 17 0
BBX 10 47 4 -9
BITMAP
07C0
1FC0
3FC0
3F80
7C00
7C00
7800
F800
F800
F800
F800
F800
F800
F800
F800
F800
F800
F800
F800
F800
F800
F800
F800
F800
F800
F800
F800
F800
F800
F800
F800
F800
F800
F800
F800
F800
F800
F800
F800
F800
F800
7C00
7C00
3FC0
3FC0
1FC0
07C0
ENDCHAR
STARTCHAR 0029
ENCODING 41
SWIDTH 326 0
DWIDTH 17 0
BBX 10 47 3 -9
BITMAP
F800
FE00
FF00
7F00
0F80
0F80
0780
07C0
07C0
07C0
07C0
07C0
07C0
07C0
07C0
07C0
07C0
07C0
07C0
07C0
07C0
07C0
07C0
07C0
07C0
07C0
07C0
07C0
07C0
07C0
07C0
07C0
07C0
07C0
07C0
07C0
07C0
07C0
07C0
07C0
0780
0F80
0F80
FF00
FF00
FE00
F800
ENDCHAR
STARTCHAR 002A
ENCODING 42
SWIDTH 480 0
DWIDTH 25 0
BBX 21 20 2 14
BITMAP
007000
007000
007000
007000
007000
007000
607030
FC71F8
FFFFF8
3FFFE0
07FF00
00F800
01FC00
01DC00
03CE00
078F00
0F0700
0E0380
1E03C0
0C0180
ENDCHAR
STARTCHAR 002B
ENCODING 43
SWIDTH 519 0
DWIDTH 27 0
BBX 24 24 2 3
BITMAP
003C00
003C00
003C00
003C00
003C00
003C00
003C00
003C00
003C00
003C00
003C00
FFFFFF
FFFFFF
FFFFFF
003C00
003C00
003C00
003C00
003C00
003C00
003C00
003C00
003C00
003C00
ENDCHAR
STARTCHAR 002C
ENCODING 44
SWIDTH 230 0
DWIDTH 12 0
BBX 5 11 3 -6
BITMAP
78
78
78
78
78
18
18
18
F8
F0
E0
ENDCHAR
STARTCHAR 002D
ENCODING 45
SWIDTH 250 0
DWIDTH 13 0
BBX 12 4 1 12
BITMAP
FFF0
FFF0
FFF0
FFF0
ENDCHAR
STARTCHAR 002E
ENCODING 46
SWIDTH 211 0
DWIDTH 11 0
BBX 5 5 3 0
BITMAP
F8
F8
F8
F8
F8
ENDCHAR
STARTCHAR 002F
ENCODING 47
SWIDTH 596 0
DWIDTH 31 0
BBX 29 40 1 -5
BITMAP
00000038
00000070
000000F0
000000E0
000001C0
000003C0
00000380
00000700
00000F00
00000E00
00001C00
00003C00
00003800
00007000
0000F000
0000E000
0001C000
0003C000
00038000
00070000
000F0000
000E0000
001C0000
003C0000
00380000
00700000
00F00000
00E00000
01C00000
03C00000
03800000
07000000
0F000000
0E000000
1C000000
3C000000
38000000
70000000
F0000000
E0000000
ENDCHAR
STARTCHAR 0030
ENCODING 48
SWIDTH 557 0
DWIDTH 29 0
BBX 24 30 3 0
BITMAP
07FFC0
1FFFF8
3FFFFC
7FFFFE
7C003E
F8001F
F8001F
F0000F
F0000F
F0000F
F0000F
F0000F
F0000F
F0000F
F0000F
F0000F
F0000F
F0000F
F0000F
F0000F
F0000F
F0000F
F0000F
F0001F
F8001F
7C003E
7FFFFE
3FFFFC
1FFFF8
03FFE0
ENDCHAR
STARTCHAR 0031
ENCODING 49
SWIDTH 557 0
DWIDTH 29 0
BBX 14 30 8 0
BITMAP
00FC
01FC
03FC
07FC
0FFC
1FBC
3F3C
7E3C
FC3C
F83C
703C
203C
003C
003C
003C
003C
003C
003C
003C
003C
003C
003C
003C
003C
003C
003C
003C
003C
003C
003C
ENDCHAR
STARTCHAR 0032
ENCODING 50
SWIDTH 519 0
DWIDTH 27 0
BBX 21 30 3 0
BITMAP
07FF00
1FFFC0
3FFFE0
7FFFF0
7C01F0
F000F8
F00078
F00078
F00078
F00078
F00078
000078
000078
000078
0000F0
0003F0
01FFE0
1FFFC0
3FFF80
7FE000
FC0000
F80000
F00000
F00000
F00000
F00000
F00000
FFFFF8
FFFFF8
FFFFF8
ENDCHAR
STARTCHAR 0033
ENCODING 51
SWIDTH 538 0
DWIDTH 28 0
BBX 23 30 2 0
BITMAP
03FFC0
1FFFF8
3FFFFC
3FFFFC
7C003E
78001E
78001E
78001E
78001E
78001E
00001E
00001E
00007C
007FFC
007FF0
007FF8
007FFC
00007C
00001E
00001E
F0001E
F0001E
F0001E
F0001E
F0003E
F8007E
7FFFFC
7FFFFC
3FFFF0
07FFC0
ENDCHAR
STARTCHAR 0034
ENCODING 52
SWIDTH 538 0
DWIDTH 28 0
BBX 24 30 2 0
BITMAP
0003F0
0007F0
0007F0
000FF0
001EF0
003EF0
007CF0
0078F0
00F0F0
01F0F0
03E0F0
03C0F0
0780F0
0F80F0
1F00F0
1E00F0
3C00F0
7C00F0
F800F0
F000F0
FFFFFF
FFFFFF
FFFFFF
0000F0
0000F0
0000F0
0000F0
0000F0
0000F0
0000F0
ENDCHAR
STARTCHAR 0035
ENCODING 53
SWIDTH 538 0
DWIDTH 28 0
BBX 22 30 3 0
BITMAP
7FFFF8
7FFFF8
7FFFF8
780000
780000
780000
780000
780000
780000
79FF80
7FFFE0
7FFFF0
7FFFF8
7C00F8
78007C
00003C
00003C
00003C
00003C
00003C
00003C
F0003C
F0003C
F0003C
F0007C
FC00F8
7FFFF8
7FFFF0
1FFFE0
07FF80
ENDCHAR
STARTCHAR 0036
ENCODING 54
SWIDTH 538 0
DWIDTH 28 0
BBX 23 30 3 0
BITMAP
03FF80
1FFFF0
3FFFF8
7FFFF8
7C007C
F8003C
F0003C
F0003C
F00000
F00000
F00000
F1FFC0
F7FFF0
FFFFF8
FFFFFC
FC007C
F8003E
F0001E
F0001E
F0001E
F0001E
F0001E
F0001E
F0001E
F8003E
7C007C
7FFFFC
3FFFF8
1FFFF0
03FFC0
ENDCHAR
STARTCHAR 0037
ENCODING 55
SWIDTH 519 0
DWIDTH 27 0
BBX 22 30 2 0
BITMAP
FFFFFC
FFFFFC
FFFFFC
00003C
00007C
000078
0000F8
0000F0
0001F0
0001E0
0003E0
0007C0
000780
000F80
000F00
001F00
001E00
003E00
003C00
007C00
00F800
00F000
01F000
01E000
03E000
03C000
07C000
0F8000
0F8000
1F0000
ENDCHAR
STARTCHAR 0038
ENCODING 56
SWIDTH 538 0
DWIDTH 28 0
BBX 22 30 3 0
BITMAP
0FFFC0
3FFFF0
7FFFF8
7FFFF8
F800FC
F0003C
F0003C
F0003C
F0003C
F0003C
F0003C
70007C
7C00F8
3FFFF0
1FFFE0
7FFFF8
7FFFF8
FC00FC
F0003C
F0003C
F0003C
F0003C
F0003C
F0003C
F0007C
FC00FC
7FFFF8
7FFFF8
3FFFF0
07FF80
ENDCHAR
STARTCHAR 0039
ENCODING 57
SWIDTH 538 0
DWIDTH 28 0
BBX 22 30 3 0
BITMAP
07FF80
1FFFE0
3FFFF0
7FFFF8
7C00F8
F8007C
F0003C
F0003C
F0003C
F0003C
F0003C
F0003C
F0003C
F8003C
FC00FC
7FFFFC
7FFFFC
1FFFBC
07FE3C
00003C
00003C
00003C
F0003C
F0003C
F0007C
F800F8
FFFFF8
7FFFF0
3FFFE0
0FFF80
ENDCHAR
STARTCHAR 003A
ENCODING 58
SWIDTH 211 0
DWIDTH 11 0
BBX 5 28 3 0
BITMAP
F8
F8
F8
F8
F8
00
00
00
00
00
00
00
00
00
00
00
00
00
00
00
00
00
00
F8
F8
F8
F8
F8
ENDCHAR
STARTCHAR 003B
ENCODING 59
SWIDTH 230 0
DWIDTH 12 0
BBX 5 34 3 -6
BITMAP
F8
F8
F8
F8
F8
00
00
00
00
00
00
00
00
00
00
00
00
00
00
00
00
00
00
78
78
78
78
78
18
18
18
F8
F0
E0
ENDCHAR
STARTCHAR 003C
ENCODING 60
SWIDTH 500 0
DWIDTH 26 0
BBX 22 25 2 3
BITMAP
000004
00001C
00007C
0001FC
0007F8
001FE0
007F80
03FE00
0FF800
3FE000
FF0000
FC0000
F00000
FE0000
7F8000
1FE000
07F800
01FE00
007F80
001FE0
0007F8
0001FC
00007C
00001C
000004
ENDCHAR
STARTCHAR 003D
ENCODING 61
SWIDTH 519 0
DWIDTH 27 0
BBX 24 12 2 9
BITMAP
FFFFFF
FFFFFF
FFFFFF
000000
000000
000000
000000
000000
000000
FFFFFF
FFFFFF
FFFFFF
ENDCHAR
STARTCHAR 003E
ENCODING 62
SWIDTH 500 0
DWIDTH 26 0
BBX 22 25 2 3
BITMAP
800000
E00000
F80000
FE0000
7F8000
1FE000
07F800
01FF00
007FC0
001FF0
0003FC
0000FC
00003C
0001FC
0007F8
001FE0
007F80
01FE00
07F800
1FE000
7F8000
FE0000
F80000
E00000
800000
ENDCHAR
STARTCHAR 003F
ENCODING 63
SWIDTH 480 0
DWIDTH 25 0
BBX 19 35 3 0
BITMAP
0FFC00
3FFF80
7FFFC0
7FFFC0
F803E0
F001E0
F001E0
F001E0
F001E0
0001E0
0001E0
0001E0
0001E0
0003E0
001FC0
00FF80
01FF00
03F800
03E000
03C000
03C000
03C000
03C000
03C000
03C000
000000
000000
000000
000000
000000
03E000
03E000
03E000
03E000
03E000
ENDCHAR
STARTCHAR 0040
ENCODING 64
SWIDTH 730 0
DWIDTH 38 0
BBX 33 35 3 0
BITMAP
007FFF8000
07FFFFF800
1FFFFFFC00
3F80007E00
3C00000F00
7800000700
7000000700
700FE38700
703FFB8380
E07FFF8380
E0780F8380
E070078380
E0E0038380
E0E0038380
E0E0038380
E0E0038380
E0E0038380
E0E0038380
E0E0038380
E0E0038380
E0E0038380
E0E0038380
E0F0078300
E070078700
E0780D8700
F07FFDC700
703FF8FE00
700FE07C00
7000000000
3800000000
3C00000000
1F80003000
0FFFFFF800
03FFFFF000
003FFF8000
ENDCHAR
STARTCHAR 0041
ENCODING 65
SWIDTH 557 0
DWIDTH 29 0
BBX 27 30 1 0
BITMAP
001F0000
003F0000
003F8000
007F8000
007FC000
007BC000
00FBC000
00FBE000
00F1E000
01F1F000
01E1F000
03E0F000
03E0F800
03C07800
07C07800
07C07C00
07803C00
0F803E00
0F001E00
1F001E00
1F001F00
1FFFFF00
3FFFFF80
3FFFFF80
3C000780
7C0007C0
780003C0
F80003C0
F00001E0
F00001E0
ENDCHAR
STARTCHAR 0042
ENCODING 66
SWIDTH 576 0
DWIDTH 30 0
BBX 24 30 4 0
BITMAP
FFFFE0
FFFFF8
FFFFFC
FFFFFC
F0003E
F0001E
F0001E
F0001E
F0001E
F0001E
F0001E
F0003E
F0007C
FFFFFC
FFFFE0
FFFFFC
FFFFFE
F0003E
F0000F
F0000F
F0000F
F0000F
F0000F
F0000F
F0000F
F0003E
FFFFFE
FFFFFE
FFFFFC
FFFFE0
ENDCHAR
STARTCHAR 0043
ENCODING 67
SWIDTH 557 0
DWIDTH 29 0
BBX 25 31 2 -1
BITMAP
03FFF000
0FFFFC00
3FFFFE00
7FFFFF00
7C001F00
F8000F80
F0000780
F0000780
F0000780
F0000780
F0000000
F0000000
F0000000
F0000000
F0000000
F0000000
F0000000
F0000000
F0000000
F0000000
F0000780
F0000780
F0000780
F8000780
F8000780
78000F80
7C001F00
3FFFFF00
3FFFFE00
1FFFFC00
03FFF000
ENDCHAR
STARTCHAR 0044
ENCODING 68
SWIDTH 596 0
DWIDTH 31 0
BBX 25 30 4 0
BITMAP
FFFFE000
FFFFF800
FFFFFC00
FFFFFE00
F0003F00
F0000F00
F0000F00
F0000780
F0000780
F0000780
F0000780
F0000780
F0000780
F0000780
F0000780
F0000780
F0000780
F0000780
F0000780
F0000780
F0000780
F0000780
F0000F80
F0000F80
F0001F00
F0003F00
FFFFFE00
FFFFFE00
FFFFF800
FFFFE000
ENDCHAR
STARTCHAR 0045
ENCODING 69
SWIDTH 500 0
DWIDTH 26 0
BBX 20 30 4 0
BITMAP
FFFFF0
FFFFF0
FFFFF0
FFFFF0
F00000
F00000
F00000
F00000
F00000
F00000
F00000
F00000
F00000
FFFFE0
FFFFE0
FFFFE0
FFFFE0
F00000
F00000
F00000
F00000
F00000
F00000
F00000
F00000
F00000
FFFFF0
FFFFF0
FFFFF0
FFFFF0
ENDCHAR
STARTCHAR 0046
ENCODING 70
SWIDTH 461 0
DWIDTH 24 0
BBX 19 30 4 0
BITMAP
FFFFE0
FFFFE0
FFFFE0
FFFFE0
F00000
F00000
F00000
F00000
F00000
F00000
F00000
F00000
F00000
FFFFE0
FFFFE0
FFFFE0
FFFFE0
F00000
F00000
F00000
F00000
F00000
F00000
F00000
F00000
F00000
F00000
F00000
F00000
F00000
ENDCHAR
STARTCHAR 0047
ENCODING 71
SWIDTH 576 0
DWIDTH 30 0
BBX 26 31 2 -1
BITMAP
03FFF800
0FFFFF00
1FFFFF80
3FFFFF80
7C000FC0
780007C0
700003C0
F00003C0
F00003C0
F00003C0
F0000000
F0000000
F0000000
F0000000
F0000000
F007FFC0
F007FFC0
F007FFC0
F007FFC0
F00003C0
F00003C0
F00003C0
F00003C0
F00003C0
F00003C0
780007C0
7E000F80
3FFFFF80
3FFFFF00
0FFFFE00
03FFF800
ENDCHAR
STARTCHAR 0048
ENCODING 72
SWIDTH 634 0
DWIDTH 33 0
BBX 25 30 4 0
BITMAP
F0000780
F0000780
F0000780
F0000780
F0000780
F0000780
F0000780
F0000780
F0000780
F0000780
F0000780
F0000780
F0000780
FFFFFF80
FFFFFF80
FFFFFF80
FFFFFF80
F0000780
F0000780
F0000780
F0000780
F0000780
F0000780
F0000780
F0000780
F0000780
F0000780
F0000780
F0000780
F0000780
ENDCHAR
STARTCHAR 0049
ENCODING 73
SWIDTH 211 0
DWIDTH 11 0
BBX 4 30 4 0
BITMAP
F0
F0
F0
F0
F0
F0
F0
F0
F0
F0
F0
F0
F0
F0
F0
F0
F0
F0
F0
F0
F0
F0
F0
F0
F0
F0
F0
F0
F0
F0
ENDCHAR
STARTCHAR 004A
ENCODING 74
SWIDTH 480 0
DWIDTH 25 0
BBX 20 31 1 -1
BITMAP
0000F0
0000F0
0000F0
0000F0
0000F0
0000F0
0000F0
0000F0
0000F0
0000F0
0000F0
0000F0
0000F0
0000F0
0000F0
0000F0
0000F0
0000F0
0000F0
F000F0
F000F0
F000F0
F000F0
F000F0
F000F0
F001F0
F803E0
FFFFE0
7FFFC0
3FFF80
07FE00
ENDCHAR
STARTCHAR 004B
ENCODING 75
SWIDTH 557 0
DWIDTH 29 0
BBX 25 30 4 0
BITMAP
F0003F00
F0007E00
F000FC00
F000F800
F001F000
F003E000
F007C000
F00F8000
F01F0000
F03E0000
F07C0000
F0F80000
F1F00000
FFE00000
FFC00000
FFE00000
FFF00000
F0F80000
F07C0000
F03E0000
F01F0000
F00F8000
F007C000
F003E000
F001F000
F000F800
F0007C00
F0003E00
F0001F00
F0000F80
ENDCHAR
STARTCHAR 004C
ENCODING 76
SWIDTH 461 0
DWIDTH 24 0
BBX 20 30 4 0
BITMAP
F00000
F00000
F00000
F00000
F00000
F00000
F00000
F00000
F00000
F00000
F00000
F00000
F00000
F00000
F00000
F00000
F00000
F00000
F00000
F00000
F00000
F00000
F00000
F00000
F00000
F00000
FFFFF0
FFFFF0
FFFFF0
FFFFF0
ENDCHAR
STARTCHAR 004D
ENCODING 77
SWIDTH 788 0
DWIDTH 41 0
BBX 33 30 4 0
BITMAP
FC00003F80
FE00003F80
FE00003F80
FF00007F80
FF00007F80
F70000F780
F78000F780
F38000F780
F3C001E780
F3C001E780
F1C003C780
F1E003C780
F0E003C780
F0F0078780
F0F0078780
F0700F0780
F0780F0780
F0380E0780
F03C1E0780
F03C1E0780
F01C3C0780
F01E3C0780
F00E380780
F00F780780
F00F780780
F007700780
F007F00780
F003E00780
F003E00780
F003E00780
ENDCHAR
STARTCHAR 004E
ENCODING 78
SWIDTH 653 0
DWIDTH 34 0
BBX 26 30 4 0
BITMAP
FC0003C0
FE0003C0
FE0003C0
FF0003C0
FF8003C0
F78003C0
F3C003C0
F3C003C0
F1E003C0
F0F003C0
F0F003C0
F07803C0
F07C03C0
F03C03C0
F01E03C0
F01E03C0
F00F03C0
F00F83C0
F00783C0
F003C3C0
F003C3C0
F001E3C0
F001F3C0
F000F3C0
F0007BC0
F0007FC0
F0003FC0
F0001FC0
F0001FC0
F0000FC0
ENDCHAR
STARTCHAR 004F
ENCODING 79
SWIDTH 596 0
DWIDTH 31 0
BBX 27 31 2 -1
BITMAP
03FFF800
0FFFFE00
3FFFFF00
3FFFFF80
7E0007C0
780003C0
F00003E0
F00001E0
F00001E0
F00001E0
F00001E0
F00001E0
F00001E0
F00001E0
F00001E0
F00001E0
F00001E0
F00001E0
F00001E0
F00001E0
F00001E0
F00001E0
F00001E0
F00001E0
F80001E0
780003C0
7C000FC0
3FFFFFC0
3FFFFF80
1FFFFF00
03FFF800
ENDCHAR
STARTCHAR 0050
ENCODING 80
SWIDTH 557 0
DWIDTH 29 0
BBX 23 30 4 0
BITMAP
FFFFC0
FFFFF0
FFFFF8
FFFFFC
F0007C
F0003E
F0001E
F0001E
F0001E
F0001E
F0001E
F0001E
F0001E
F0001E
F0007C
FFFFFC
FFFFF8
FFFFF0
FFFFE0
F00000
F00000
F00000
F00000
F00000
F00000
F00000
F00000
F00000
F00000
F00000
ENDCHAR
STARTCHAR 0051
ENCODING 81
SWIDTH 596 0
DWIDTH 31 0
BBX 30 31 2 -1
BITMAP
03FFF800
0FFFFE00
3FFFFF00
3FFFFF80
7E0007C0
780003C0
F00003E0
F00001E0
F00001E0
F00001E0
F00001E0
F00001E0
F00001E0
F00001E0
F00001E0
F00001E0
F00001E0
F00301E0
F00381E0
F007E1E0
F003F9E0
F000FDE0
F0007FE0
F0001FE0
F80007E0
780003F0
7C0007FC
3FFFFFF8
3FFFFFB8
1FFFFE00
03FFF800
ENDCHAR
STARTCHAR 0052
ENCODING 82
SWIDTH 576 0
DWIDTH 30 0
BBX 23 30 4 0
BITMAP
FFFFE0
FFFFF8
FFFFFC
FFFFFC
F0007E
F0003E
F0001E
F0001E
F0001E
F0001E
F0001E
F0001E
F0001E
F0003E
F0007E
FFFFFC
FFFFF8
FFFFF0
FFFFFC
F0007C
F0003E
F0001E
F0001E
F0001E
F0001E
F0001E
F0001E
F0001E
F0001E
F0001E
ENDCHAR
STARTCHAR 0053
ENCODING 83
SWIDTH 538 0
DWIDTH 28 0
BBX 24 30 2 0
BITMAP
0FFF80
3FFFF0
7FFFF8
7FFFF8
FC007C
F0003C
F0003C
F0003C
F0003C
F00000
F00000
F00000
F80000
7FFFE0
3FFFF8
1FFFFE
0FFFFE
00001F
00000F
00000F
F0000F
F0000F
F0000F
F0000F
F8001F
FC003F
7FFFFE
7FFFFE
3FFFFC
0FFFF0
ENDCHAR
STARTCHAR 0054
ENCODING 84
SWIDTH 500 0
DWIDTH 26 0
BBX 24 30 1 0
BITMAP
FFFFFF
FFFFFF
FFFFFF
FFFFFF
003C00
003C00
003C00
003C00
003C00
003C00
003C00
003C00
003C00
003C00
003C00
003C00
003C00
003C00
003C00
003C00
003C00
003C00
003C00
003C00
003C00
003C00
003C00
003C00
003C00
003C00
ENDCHAR
STARTCHAR 0055
ENCODING 85
SWIDTH 615 0
DWIDTH 32 0
BBX 24 31 4 -1
BITMAP
F0000F
F0000F
F0000F
F0000F
F0000F
F0000F
F0000F
F0000F
F0000F
F0000F
F0000F
F0000F
F0000F
F0000F
F0000F
F0000F
F0000F
F0000F
F0000F
F0000F
F0000F
F0000F
F0000F
F0000F
F0000F
F8001F
7C003E
7FFFFE
3FFFFC
1FFFF8
07FFE0
ENDCHAR
STARTCHAR 0056
ENCODING 86
SWIDTH 538 0
DWIDTH 28 0
BBX 26 30 1 0
BITMAP
F00003C0
F00003C0
F80007C0
78000780
78000780
7C000F80
3C000F00
3C001F00
3E001E00
1E001E00
1E003E00
0F003C00
0F003C00
0F807C00
07807800
07807800
07C0F800
03C0F000
03C0F000
03E1E000
01E1E000
01E3E000
00F3C000
00F3C000
00FFC000
007F8000
007F8000
007F8000
003F0000
003F0000
ENDCHAR
STARTCHAR 0057
ENCODING 87
SWIDTH 884 0
DWIDTH 46 0
BBX 44 30 1 0
BITMAP
F0001F8000F0
F0001F8000F0
F0003F8001F0
F8003FC001E0
78003FC001E0
78007BC003E0
7C0079C003C0
3C0079E003C0
3C0071E003C0
3C00F1E00780
1E00F0F00780
1E00F0F00780
1E01E0F00F00
0F01E0700F00
0F01E0780F00
0F03C0781E00
0F83C0781E00
0783C03C1E00
0783C03C3E00
0787803C3C00
03C7801E3C00
03C7801E3C00
03CF001E7800
01EF001E7800
01EF000F7800
01FE000FF000
00FE000FF000
00FE0007F000
00FE0007E000
007C0007E000
ENDCHAR
STARTCHAR 0058
ENCODING 88
SWIDTH 538 0
DWIDTH 28 0
BBX 28 30 0 0
BITMAP
7C0003E0
3E0007C0
1F0007C0
1F000F80
0F801F00
07C01F00
07C03E00
03E07C00
01F07800
00F0F800
00F9F000
007DE000
003FE000
003FC000
001F8000
003FC000
003FE000
007FE000
00F9F000
01F0F800
01F07800
03E07C00
07C03E00
07C01E00
0F801F00
1F000F80
3E0007C0
3E0007C0
7C0003E0
F80001F0
ENDCHAR
STARTCHAR 0059
ENCODING 89
SWIDTH 519 0
DWIDTH 27 0
BBX 26 30 0 0
BITMAP
F80007C0
780007C0
7C000F80
3E001F00
1E001F00
1F003E00
0F803C00
07807C00
07C0F800
03E0F000
03E1F000
01F3E000
00FBC000
00FFC000
007F8000
003F0000
003F0000
001E0000
001E0000
001E0000
001E0000
001E0000
001E0000
001E0000
001E0000
001E0000
001E0000
001E0000
001E0000
001E0000
ENDCHAR
STARTCHAR 005A
ENCODING 90
SWIDTH 519 0
DWIDTH 27 0
BBX 24 30 2 0
BITMAP
FFFFFE
FFFFFE
FFFFFE
FFFFFE
00003C
00007C
0000F8
0001F0
0003E0
0003C0
000780
000F80
001F00
003E00
003C00
007800
00F800
01F000
03E000
07C000
078000
0F0000
1F0000
3E0000
7C0000
F80000
FFFFFF
FFFFFF
FFFFFF
FFFFFF
ENDCHAR
STARTCHAR 005B
ENCODING 91
SWIDTH 326 0
DWIDTH 17 0
BBX 10 47 4 -9
BITMAP
FFC0
FFC0
FFC0
F000
F000
F000
F000
F000
F000
F000
F000
F000
F000
F000
F000
F000
F000
F000
F000
F000
F000
F000
F000
F000
F000
F000
F000
F000
F000
F000
F000
F000
F000
F000
F000
F000
F000
F000
F000
F000
F000
F000
F000
F000
FFC0
FFC0
FFC0
ENDCHAR
STARTCHAR 005C
ENCODING 92
SWIDTH 596 0
DWIDTH 31 0
BBX 29 40 1 -5
BITMAP
E0000000
F0000000
70000000
38000000
3C000000
1C000000
0E000000
0F000000
07000000
03800000
03C00000
01C00000
00E00000
00F00000
00700000
00380000
003C0000
001C0000
000E0000
000F0000
00070000
00038000
0003C000
0001C000
0000E000
0000F000
00007000
00003800
00003C00
00001C00
00000E00
00000F00
00000700
00000380
000003C0
000001C0
000000E0
000000F0
00000070
00000038
ENDCHAR
STARTCHAR 005D
ENCODING 93
SWIDTH 326 0
DWIDTH 17 0
BBX 10 47 3 -9
BITMAP
FFC0
FFC0
FFC0
03C0
03C0
03C0
03C0
03C0
03C0
03C0
03C0
03C0
03C0
03C0
03C0
03C0
03C0
03C0
03C0
03C0
03C0
03C0
03C0
03C0
03C0
03C0
03C0
03C0
03C0
03C0
03C0
03C0
03C0
03C0
03C0
03C0
03C0
03C0
03C0
03C0
03C0
03C0
03C0
03C0
FFC0
FFC0
FFC0
ENDCHAR
STARTCHAR 005E
ENCODING 94
SWIDTH 500 0
DWIDTH 26 0
BBX 22 16 2 19
BITMAP
00FC00
00FC00
01FE00
01FE00
03CF00
03CF00
078780
0F03C0
0F03C0
1E01E0
1E01E0
3C00F0
3C00F0
780078
F0003C
F0003C
ENDCHAR
STARTCHAR 005F
ENCODING 95
SWIDTH 500 0
DWIDTH 26 0
BBX 26 3 0 -6
BITMAP
FFFFFFC0
FFFFFFC0
FFFFFFC0
ENDCHAR
STARTCHAR 0060
ENCODING 96
SWIDTH 500 0
DWIDTH 26 0
BBX 9 7 7 34
BITMAP
6000
F000
F800
7E00
1F00
0F80
0380
ENDCHAR
STARTCHAR 0061
ENCODING 97
SWIDTH 557 0
DWIDTH 29 0
BBX 27 30 1 0
BITMAP
001F0000
003F0000
003F8000
007F8000
007FC000
007BC000
00FBC000
00F1E000
00F1E000
01F1F000
01E0F000
03E0F000
03E0F800
03C07800
07C07800
07807C00
07803C00
0F803E00
0F001E00
1F001E00
1F001F00
1FFFFF00
3FFFFF80
3FFFFF80
3C000780
7C0007C0
780003C0
F80003C0
F00001E0
F00001E0
ENDCHAR
STARTCHAR 0062
ENCODING 98
SWIDTH 576 0
DWIDTH 30 0
BBX 24 30 4 0
BITMAP
FFFFE0
FFFFF8
FFFFFC
FFFFFC
F0003E
F0001E
F0001E
F0001E
F0001E
F0001E
F0001E
F0003E
F0007C
FFFFFC
FFFFE0
FFFFFC
FFFFFE
F0003E
F0001F
F0000F
F0000F
F0000F
F0000F
F0000F
F0000F
F0003E
FFFFFE
FFFFFE
FFFFFC
FFFFE0
ENDCHAR
STARTCHAR 0063
ENCODING 99
SWIDTH 557 0
DWIDTH 29 0
BBX 25 30 2 0
BITMAP
03FFF000
0FFFFC00
3FFFFE00
3FFFFF00
7E001F00
78000780
F0000780
F0000780
F0000780
F0000780
F0000000
F0000000
F0000000
F0000000
F0000000
F0000000
F0000000
F0000000
F0000000
F0000000
F0000780
F0000780
F0000780
78000780
78000780
7E001F80
3FFFFF80
3FFFFF00
0FFFFE00
03FFF800
ENDCHAR
STARTCHAR 0064
ENCODING 100
SWIDTH 615 0
DWIDTH 32 0
BBX 26 30 4 0
BITMAP
FFFFF000
FFFFFC00
FFFFFE00
FFFFFF00
F0001F80
F0000F80
F0000780
F0000780
F00003C0
F00003C0
F00003C0
F00003C0
F00003C0
F00003C0
F00003C0
F00003C0
F00003C0
F00003C0
F00003C0
F00003C0
F00003C0
F00003C0
F00007C0
F0000780
F0000F80
F0003F80
FFFFFF00
FFFFFE00
FFFFFC00
FFFFE000
ENDCHAR
STARTCHAR 0065
ENCODING 101
SWIDTH 500 0
DWIDTH 26 0
BBX 20 30 4 0
BITMAP
FFFFF0
FFFFF0
FFFFF0
FFFFF0
F00000
F00000
F00000
F00000
F00000
F00000
F00000
F00000
F00000
FFFFE0
FFFFE0
FFFFE0
FFFFE0
F00000
F00000
F00000
F00000
F00000
F00000
F00000
F00000
F00000
FFFFF0
FFFFF0
FFFFF0
FFFFF0
ENDCHAR
STARTCHAR 0066
ENCODING 102
SWIDTH 461 0
DWIDTH 24 0
BBX 19 30 4 0
BITMAP
FFFFE0
FFFFE0
FFFFE0
FFFFE0
F00000
F00000
F00000
F00000
F00000
F00000
F00000
F00000
F00000
FFFFE0
FFFFE0
FFFFE0
FFFFE0
F00000
F00000
F00000
F00000
F00000
F00000
F00000
F00000
F00000
F00000
F00000
F00000
F00000
ENDCHAR
STARTCHAR 0067
ENCODING 103
SWIDTH 576 0
DWIDTH 30 0
BBX 25 30 3 0
BITMAP
03FFF800
1FFFFE00
3FFFFF00
3FFFFF00
7C001F80
78000780
F8000780
F0000780
F0000780
F0000000
F0000000
F0000000
F0000000
F0000000
F0000000
F00FFF80
F00FFF80
F00FFF80
F00FFF80
F0000780
F0000780
F0000780
F0000780
F0000780
78000F80
7E001F00
7FFFFF00
3FFFFE00
1FFFFC00
03FFF000
ENDCHAR
STARTCHAR 0068
ENCODING 104
SWIDTH 615 0
DWIDTH 32 0
BBX 25 30 4 0
BITMAP
F0000780
F0000780
F0000780
F0000780
F0000780
F0000780
F0000780
F0000780
F0000780
F0000780
F0000780
F0000780
F0000780
FFFFFF80
FFFFFF80
FFFFFF80
FFFFFF80
F0000780
F0000780
F0000780
F0000780
F0000780
F0000780
F0000780
F0000780
F0000780
F0000780
F0000780
F0000780
F0000780
ENDCHAR
STARTCHAR 0069
ENCODING 105
SWIDTH 211 0
DWIDTH 11 0
BBX 4 30 4 0
BITMAP
F0
F0
F0
F0
F0
F0
F0
F0
F0
F0
F0
F0
F0
F0
F0
F0
F0
F0
F0
F0
F0
F0
F0
F0
F0
F0
F0
F0
F0
F0
ENDCHAR
STARTCHAR 006A
ENCODING 106
SWIDTH 480 0
DWIDTH 25 0
BBX 19 30 2 0
BITMAP
0001E0
0001E0
0001E0
0001E0
0001E0
0001E0
0001E0
0001E0
0001E0
0001E0
0001E0
0001E0
0001E0
0001E0
0001E0
0001E0
0001E0
0001E0
0001E0
F001E0
F001E0
F001E0
F001E0
F001E0
F003E0
F803E0
7FFFC0
7FFFC0
3FFF80
0FFE00
ENDCHAR
STARTCHAR 006B
ENCODING 107
SWIDTH 557 0
DWIDTH 29 0
BBX 25 30 4 0
BITMAP
F0003F00
F0007E00
F0007C00
F000F800
F001F000
F003E000
F007C000
F00F8000
F01F0000
F03E0000
F07C0000
F0F80000
F1F80000
FFF00000
FFE00000
FFE00000
FFF00000
F1F80000
F0FC0000
F07E0000
F03F0000
F01F8000
F00FC000
F007E000
F001F000
F000F800
F0007C00
F0003E00
F0001F00
F0000F80
ENDCHAR
STARTCHAR 006C
ENCODING 108
SWIDTH 461 0
DWIDTH 24 0
BBX 19 30 4 0
BITMAP
F00000
F00000
F00000
F00000
F00000
F00000
F00000
F00000
F00000
F00000
F00000
F00000
F00000
F00000
F00000
F00000
F00000
F00000
F00000
F00000
F00000
F00000
F00000
F00000
F00000
F00000
FFFFE0
FFFFE0
FFFFE0
FFFFE0
ENDCHAR
STARTCHAR 006D
ENCODING 109
SWIDTH 788 0
DWIDTH 41 0
BBX 33 30 4 0
BITMAP
FC00003F80
FE00003F80
FE00003F80
FF00007F80
FF00007F80
F70000F780
F78000F780
F38000F780
F3C001E780
F3C001E780
F1C003C780
F1E003C780
F0E003C780
F0F0078780
F0F0078780
F0700F0780
F0780F0780
F0380E0780
F03C1E0780
F03C1E0780
F01C3C0780
F01E3C0780
F00E380780
F00F780780
F00F780780
F007700780
F007F00780
F003E00780
F003E00780
F003E00780
ENDCHAR
STARTCHAR 006E
ENCODING 110
SWIDTH 653 0
DWIDTH 34 0
BBX 26 30 4 0
BITMAP
FC0003C0
FE0003C0
FE0003C0
FF0003C0
FF8003C0
F78003C0
F3C003C0
F3C003C0
F1E003C0
F0F003C0
F0F003C0
F07803C0
F07C03C0
F03C03C0
F01E03C0
F01E03C0
F00F03C0
F00F83C0
F00783C0
F003C3C0
F003C3C0
F001E3C0
F001F3C0
F000F3C0
F0007BC0
F0007FC0
F0003FC0
F0001FC0
F0001FC0
F0000FC0
ENDCHAR
STARTCHAR 006F
ENCODING 111
SWIDTH 596 0
DWIDTH 31 0
BBX 27 30 2 0
BITMAP
03FFF800
0FFFFE00
1FFFFF00
3FFFFF80
7E000FC0
7C0007C0
F80003C0
F80003E0
F80003E0
F00001E0
F00001E0
F00001E0
F00001E0
F00001E0
F00001E0
F00001E0
F00001E0
F00001E0
F00001E0
F00001E0
F00001E0
F80003E0
F80003E0
F80003E0
7C0007C0
7E000FC0
3FFFFF80
3FFFFF80
0FFFFE00
03FFF800
ENDCHAR
STARTCHAR 0070
ENCODING 112
SWIDTH 538 0
DWIDTH 28 0
BBX 23 30 4 0
BITMAP
FFFFE0
FFFFF0
FFFFF8
FFFFFC
F0003C
F0003E
F0001E
F0001E
F0001E
F0001E
F0001E
F0001E
F0001E
F0003E
F0007C
FFFFFC
FFFFF8
FFFFF0
FFFFE0
F00000
F00000
F00000
F00000
F00000
F00000
F00000
F00000
F00000
F00000
F00000
ENDCHAR
STARTCHAR 0071
ENCODING 113
SWIDTH 596 0
DWIDTH 31 0
BBX 29 30 2 0
BITMAP
03FFF800
0FFFFE00
1FFFFF00
3FFFFF80
7E000FC0
7C0007C0
F80003C0
F80003E0
F80003E0
F00003E0
F00001E0
F00001E0
F00001E0
F00001E0
F00001E0
F00001E0
F00001E0
F00381E0
F007C1E0
F007F1E0
F001F9E0
F800FFE0
F8003FE0
F8001FC0
7C0007E0
7E0007F0
3FFFFFF8
3FFFFF70
0FFFFE10
03FFF800
ENDCHAR
STARTCHAR 0072
ENCODING 114
SWIDTH 576 0
DWIDTH 30 0
BBX 23 30 4 0
BITMAP
FFFFC0
FFFFF0
FFFFF8
FFFFFC
F0007C
F0003E
F0001E
F0001E
F0001E
F0001E
F0001E
F0001E
F0001E
F0003E
F0007C
FFFFFC
FFFFF8
FFFFF0
FFFFFC
F0007C
F0003E
F0001E
F0001E
F0001E
F0001E
F0001E
F0001E
F0001E
F0001E
F0001E
ENDCHAR
STARTCHAR 0073
ENCODING 115
SWIDTH 538 0
DWIDTH 28 0
BBX 24 30 2 0
BITMAP
07FFC0
1FFFF8
3FFFFC
7FFFFC
FC007E
F8001E
F0001E
F0001E
F0001E
F00000
F00000
F00000
7C0000
7FFF80
3FFFF8
0FFFFC
0001FE
00001F
00000F
00000F
F0000F
F0000F
F0000F
F0000F
78001F
7C003F
7FFFFE
3FFFFE
1FFFFC
07FFE0
ENDCHAR
STARTCHAR 0074
ENCODING 116
SWIDTH 500 0
DWIDTH 26 0
BBX 24 30 1 0
BITMAP
FFFFFF
FFFFFF
FFFFFF
FFFFFF
003C00
003C00
003C00
003C00
003C00
003C00
003C00
003C00
003C00
003C00
003C00
003C00
003C00
003C00
003C00
003C00
003C00
003C00
003C00
003C00
003C00
003C00
003C00
003C00
003C00
003C00
ENDCHAR
STARTCHAR 0075
ENCODING 117
SWIDTH 615 0
DWIDTH 32 0
BBX 24 30 4 0
BITMAP
F0000F
F0000F
F0000F
F0000F
F0000F
F0000F
F0000F
F0000F
F0000F
F0000F
F0000F
F0000F
F0000F
F0000F
F0000F
F0000F
F0000F
F0000F
F0000F
F0000F
F0000F
F0000F
F0000F
F0000F
F8001F
7C003E
7FFFFE
3FFFFC
1FFFF8
07FFE0
ENDCHAR
STARTCHAR 0076
ENCODING 118
SWIDTH 538 0
DWIDTH 28 0
BBX 26 30 1 0
BITMAP
F00003C0
F00003C0
F80007C0
78000780
78000780
7C000F80
3C000F00
3C001F00
3E001E00
1E001E00
1E003E00
0F003C00
0F003C00
0F807C00
07807800
07807800
07C0F800
03C0F000
03C0F000
03E1E000
01E1E000
01E3E000
00F3C000
00F3C000
00FFC000
007F8000
007F8000
007F8000
003F0000
003F0000
ENDCHAR
STARTCHAR 0077
ENCODING 119
SWIDTH 884 0
DWIDTH 46 0
BBX 44 30 1 0
BITMAP
F0001F8000F0
F0001F8000F0
F0003F8001F0
F8003FC001E0
78003FC001E0
78007BC003E0
7C0079C003C0
3C0079E003C0
3C0071E003C0
3C00F1E00780
1E00F0F00780
1E00F0F00780
1E01E0F00F00
0F01E0700F00
0F01E0780F00
0F03C0781E00
0F83C0781E00
0783C03C1E00
0783C03C3E00
0787803C3C00
03C7801E3C00
03C7801E3C00
03CF001E7800
01EF001E7800
01EF000F7800
01FE000FF000
00FE000FF000
00FE0007F000
00FE0007E000
007C0007E000
ENDCHAR
STARTCHAR 0078
ENCODING 120
SWIDTH 538 0
DWIDTH 28 0
BBX 28 30 0 0
BITMAP
7C0003E0
3E0007C0
1F0007C0
1F000F80
0F801F00
07C01F00
07C03E00
03E07C00
01F07800
00F0F800
00F9F000
007DE000
003FE000
003FC000
001F8000
003FC000
003FE000
007FE000
00F9F000
01F0F800
01F07800
03E07C00
07C03E00
07C01E00
0F801F00
1F000F80
3E0007C0
3E0007C0
7C0003E0
F80001F0
ENDCHAR
STARTCHAR 0079
ENCODING 121
SWIDTH 519 0
DWIDTH 27 0
BBX 26 30 0 0
BITMAP
F80007C0
780007C0
7C000F80
3E001F00
1E001F00
1F003E00
0F803C00
07807C00
07C0F800
03E0F000
03E1F000
01F3E000
00FBC000
00FFC000
007F8000
003F0000
003F0000
001E0000
001E0000
001E0000
001E0000
001E0000
001E0000
001E0000
001E0000
001E0000
001E0000
001E0000
001E0000
001E0000
ENDCHAR
STARTCHAR 007A
ENCODING 122
SWIDTH 519 0
DWIDTH 27 0
BBX 24 30 2 0
BITMAP
FFFFFE
FFFFFE
FFFFFE
FFFFFE
00007C
00007C
0000F8
0001F0
0003E0
0007C0
000780
000F80
001F00
003E00
007C00
007800
00F000
01F000
03E000
07C000
078000
0F0000
1E0000
3E0000
7C0000
780000
FFFFFF
FFFFFF
FFFFFF
FFFFFF
ENDCHAR
STARTCHAR 007B
ENCODING 123
SWIDTH 326 0
DWIDTH 17 0
BBX 13 47 1 -9
BITMAP
00F8
03F8
07F8
07E0
0F80
0F00
0F00
0F00
0F00
0F00
0F00
0F00
0F00
0F00
0F00
0F00
0F00
0F00
0F00
1F00
1E00
7E00
FC00
F000
FC00
7E00
1E00
1F00
0F00
0F00
0F00
0F00
0F00
0F00
0F00
0F00
0F00
0F00
0F00
0F00
0F00
0F00
0F80
07C0
07F8
03F8
00F8
ENDCHAR
STARTCHAR 007C
ENCODING 124
SWIDTH 288 0
DWIDTH 15 0
BBX 4 44 6 -9
BITMAP
F0
F0
F0
F0
F0
F0
F0
F0
F0
F0
F0
F0
F0
F0
F0
F0
F0
F0
F0
F0
F0
F0
F0
F0
F0
F0
F0
F0
F0
F0
F0
F0
F0
F0
F0
F0
F0
F0
F0
F0
F0
F0
F0
F0
ENDCHAR
STARTCHAR 007D
ENCODING 125
SWIDTH 326 0
DWIDTH 17 0
BBX 13 47 3 -9
BITMAP
F800
FE00
FF00
1F00
0F80
0780
0780
0780
0780
0780
0780
0780
0780
0780
0780
0780
0780
0780
0780
07C0
03C0
03F0
01F8
0078
01F8
03F0
03C0
07C0
0780
0780
0780
0780
0780
0780
0780
0780
0780
0780
0780
0780
0780
0780
0F80
3F00
FF00
FE00
F800
ENDCHAR
STARTCHAR 007E
ENCODING 126
SWIDTH 673 0
DWIDTH 35 0
BBX 25 8 5 30
BITMAP
07800200
1FF00300
3FFC0780
7FFF0F00
787FFE00
F01FFE00
E007FC00
0001F000
ENDCHAR
STARTCHAR 00A0
ENCODING 160
SWIDTH 307 0
DWIDTH 16 0
BBX 0 0 0 0
BITMAP
ENDCHAR
STARTCHAR 00A1
ENCODING 161
SWIDTH 269 0
DWIDTH 14 0
BBX 5 35 4 -5
BITMAP
F8
F8
F8
F8
F8
00
00
00
00
00
78
F8
F8
F8
F8
F8
F8
F8
F8
F8
F8
F8
F8
F8
F8
F8
F8
F8
F8
F8
F8
F8
F8
F8
F8
ENDCHAR
STARTCHAR 00A2
ENCODING 162
SWIDTH 480 0
DWIDTH 25 0
BBX 19 28 3 0
BITMAP
00E000
00E000
00E000
07FC00
1FFF00
3FFF80
7EEF80
78E3C0
F8E3C0
F0E3C0
F0E3C0
F0E000
F0E000
F0E000
F0E000
F0E000
F0E000
F0E1E0
F0E1E0
F8E1E0
78E1C0
7CE7C0
3FFFC0
1FFF80
07FE00
00E000
00E000
00E000
ENDCHAR
STARTCHAR 00A3
ENCODING 163
SWIDTH 519 0
DWIDTH 27 0
BBX 25 30 1 0
BITMAP
007FE000
03FFFC00
07FFFE00
07FFFE00
0F801F00
0F000F00
0F000F00
0F000F00
0F000F00
0F000000
0F000000
0F000000
0F000000
0F000000
0F000000
FFFF0000
FFFF0000
FFFF0000
0F000000
0F000000
0F000000
0F000000
0F000000
0F000000
0F000000
1E000000
1E000000
7FFFFF80
7FFFFF80
7FFFFF80
ENDCHAR
STARTCHAR 00A4
ENCODING 164
SWIDTH 653 0
DWIDTH 34 0
BBX 28 29 3 1
BITMAP
40000020
E0000070
F01F80F0
78FFF1E0
3DFFFBC0
1FE07F80
0F801F00
0F000F00
1E000700
1C000380
1C000380
380001C0
380001C0
380001C0
380001C0
380001C0
380001C0
3C0003C0
1C000380
1E000780
0F000F00
0F801F00
0FE07F00
1FFFFF80
3CFFF3C0
783FC1E0
F00000F0
E0000070
40000020
ENDCHAR
STARTCHAR 00A5
ENCODING 165
SWIDTH 519 0
DWIDTH 27 0
BBX 25 30 1 0
BITMAP
F8000F80
78001F00
7C001E00
3E003E00
1E007C00
1F007800
0F00F800
0F81F000
07C1F000
3FC3FE00
3FE3FE00
3FE7FE00
00FF8000
00FF0000
00FF0000
007E0000
007E0000
3FFFFE00
3FFFFE00
3FFFFE00
003C0000
003C0000
003C0000
003C0000
003C0000
003C0000
003C0000
003C0000
003C0000
003C0000
ENDCHAR
STARTCHAR 00A6
ENCODING 166
SWIDTH 288 0
DWIDTH 15 0
BBX 4 44 6 -9
BITMAP
F0
F0
F0
F0
F0
F0
F0
F0
F0
F0
F0
F0
F0
F0
F0
F0
F0
00
00
00
00
00
00
00
00
00
00
F0
F0
F0
F0
F0
F0
F0
F0
F0
F0
F0
F0
F0
F0
F0
F0
F0
ENDCHAR
STARTCHAR 00A7
ENCODING 167
SWIDTH 576 0
DWIDTH 30 0
BBX 25 45 2 -10
BITMAP
01FFE000
0FFFFC00
1FFFFE00
1FFFFE00
3F003F00
3C000F00
3C000F00
3C000F00
3C000F00
3C000000
3C000000
3E000000
1F800000
1FF00000
07FF0000
3FFFE000
783FFC00
F007FE00
F0007F00
F0001F80
F0000780
F0000780
F0000780
F8000780
FF000780
7FE00F80
3FFE0F00
1FFFFF00
03FFFC00
003FFE00
0003FF00
00007F00
00000F80
00000780
00000780
78000780
78000780
78000780
78000780
7C000F80
3E001F00
3FFFFF00
1FFFFE00
0FFFFC00
03FFF000
ENDCHAR
STARTCHAR 00A8
ENCODING 168
SWIDTH 500 0
DWIDTH 26 0
BBX 16 4 5 35
BITMAP
F81F
F81F
F81F
F81F
ENDCHAR
STARTCHAR 00A9
ENCODING 169
SWIDTH 750 0
DWIDTH 39 0
BBX 35 35 2 0
BITMAP
0007FC0000
003FFF8000
007FFFC000
01FC07F000
03E000F800
0780003C00
0F00001E00
1E07FE0F00
3C1FFF0780
383FFF8380
78780383C0
70700381C0
70700381C0
F0700381E0
E0700000E0
E0700000E0
E0700000E0
E0700000E0
E0700000E0
E0700000E0
E0700000E0
F07001C1E0
707001C1C0
707801C1C0
783C03C3C0
383FFF8380
3C1FFF8780
1E0FFE0F00
0F00001E00
0780003C00
03E000F800
01FC07F000
00FFFFE000
003FFF8000
0007FC0000
ENDCHAR
STARTCHAR 00AA
ENCODING 170
SWIDTH 365 0
DWIDTH 19 0
BBX 15 17 2 13
BITMAP
1FF0
7FFC
7FFC
701E
700E
000E
1FEE
7FFE
7FFE
F01E
E00E
E00E
E00E
F01E
7FFE
7FFE
1FEE
ENDCHAR
STARTCHAR 00AB
ENCODING 171
SWIDTH 480 0
DWIDTH 25 0
BBX 19 24 3 2
BITMAP
040000
060180
0F03C0
0F03C0
1E0780
1E0780
1E0F00
3C0F00
3C1E00
781E00
783C00
F03C00
F03C00
F03C00
781E00
781E00
3C0F00
3C0F00
1E0780
1E0780
0F03C0
0703C0
0781E0
030180
ENDCHAR
STARTCHAR 00AC
ENCODING 172
SWIDTH 500 0
DWIDTH 26 0
BBX 22 15 2 0
BITMAP
FFFFFC
FFFFFC
FFFFFC
FFFFFC
00003C
00003C
00003C
00003C
00003C
00003C
00003C
00003C
00003C
00003C
00003C
ENDCHAR
STARTCHAR 00AD
ENCODING 173
SWIDTH 250 0
DWIDTH 13 0
BBX 12 4 1 12
BITMAP
FFF0
FFF0
FFF0
FFF0
ENDCHAR
STARTCHAR 00AE
ENCODING 174
SWIDTH 750 0
DWIDTH 39 0
BBX 36 35 1 0
BITMAP
0003FC0000
001FFF8000
007FFFE000
01FC03F800
03E0007C00
07C0003E00
0F00000F00
1E00000780
1C3FFE0380
383FFF81C0
783FFF81C0
703803C0E0
703801C0E0
F03801C0F0
E03801C070
E03801C070
E03803C070
E03FFF8070
E03FFF0070
E03FFF8070
E03803C070
F03801C0F0
703801C0E0
703801C0E0
783801C1E0
383801C1C0
1C3801C380
1E00000780
0F00000F00
07C0003E00
03E0007C00
01FC03F800
007FFFE000
001FFF8000
0003FC0000
ENDCHAR
STARTCHAR 00AF
ENCODING 175
SWIDTH 500 0
DWIDTH 26 0
BBX 26 3 0 38
BITMAP
FFFFFFC0
FFFFFFC0
FFFFFFC0
ENDCHAR
STARTCHAR 00B0
ENCODING 176
SWIDTH 365 0
DWIDTH 19 0
BBX 14 14 3 21
BITMAP
0FC0
1FE0
3FF0
7878
F03C
E01C
E01C
E01C
E01C
F03C
7878
3FF0
1FE0
0FC0
ENDCHAR
STARTCHAR 00B1
ENCODING 177
SWIDTH 519 0
DWIDTH 27 0
BBX 24 29 2 0
BITMAP
003C00
003C00
003C00
003C00
003C00
003C00
003C00
003C00
003C00
FFFFFF
FFFFFF
FFFFFF
FFFFFF
003C00
003C00
003C00
003C00
003C00
003C00
003C00
003C00
003C00
000000
000000
000000
FFFFFF
FFFFFF
FFFFFF
FFFFFF
ENDCHAR
STARTCHAR 00B2
ENCODING 178
SWIDTH 423 0
DWIDTH 22 0
BBX 17 21 2 9
BITMAP
0FF800
3FFE00
7FFF00
F00780
E00380
E00380
E00380
E00380
000380
000780
003F00
1FFF00
7FFC00
7F8000
F00000
F00000
F00000
F00000
FFFF80
FFFF80
FFFF80
ENDCHAR
STARTCHAR 00B3
ENCODING 179
SWIDTH 423 0
DWIDTH 22 0
BBX 17 23 2 8
BITMAP
1FFC00
7FFE00
7FFF00
F80780
F00380
F00380
F00380
F00380
000380
000700
03FF00
03FE00
03FF00
000780
000380
E00380
E00380
E00380
E00380
F00780
FFFF00
7FFE00
1FF800
ENDCHAR
STARTCHAR 00B4
ENCODING 180
SWIDTH 500 0
DWIDTH 26 0
BBX 10 7 10 34
BITMAP
0300
0780
0FC0
3F00
7C00
F800
E000
ENDCHAR
STARTCHAR 00B5
ENCODING 181
SWIDTH 596 0
DWIDTH 31 0
BBX 25 33 3 -7
BITMAP
F0000780
F0000780
F0000780
F0000780
F0000780
F0000780
F0000780
F0000780
F0000780
F0000780
F0000780
F0000780
F0000780
F0000780
F0000780
F0000780
F0000780
F0000780
F0000780
F0000780
F8000F80
FC001F00
FFFFFF00
FFFFFE00
FFFFFC00
E7FFF000
E0000000
E0000000
E0000000
E0000000
E0000000
E0000000
E0000000
ENDCHAR
STARTCHAR 00B6
ENCODING 182
SWIDTH 615 0
DWIDTH 32 0
BBX 26 40 2 -5
BITMAP
03FFFFC0
0FFFFFC0
1FFFFFC0
3FFFFFC0
7FFF83C0
7FFF83C0
7FFF83C0
FFFF83C0
FFFF83C0
FFFF83C0
FFFF83C0
FFFF83C0
FFFF83C0
FFFF83C0
FFFF83C0
FFFF83C0
FFFF83C0
7FFF83C0
7FFF83C0
7FFF83C0
3FFF83C0
1FFF83C0
0FFF83C0
01FF83C0
000783C0
000783C0
000783C0
000783C0
000783C0
000783C0
000783C0
000783C0
000783C0
000783C0
000783C0
000783C0
000783C0
000783C0
000783C0
000783C0
ENDCHAR
STARTCHAR 00B7
ENCODING 183
SWIDTH 211 0
DWIDTH 11 0
BBX 5 5 3 12
BITMAP
F8
F8
F8
F8
F8
ENDCHAR
STARTCHAR 00B8
ENCODING 184
SWIDTH 500 0
DWIDTH 26 0
BBX 8 9 9 -10
BITMAP
07
07
07
0F
1F
FE
FE
FC
F0
ENDCHAR
STARTCHAR 00B9
ENCODING 185
SWIDTH 423 0
DWIDTH 22 0
BBX 10 21 6 9
BITMAP
03C0
07C0
0FC0
1FC0
3DC0
79C0
F1C0
61C0
01C0
01C0
01C0
01C0
01C0
01C0
01C0
01C0
01C0
01C0
01C0
01C0
01C0
ENDCHAR
STARTCHAR 00BA
ENCODING 186
SWIDTH 384 0
DWIDTH 20 0
BBX 16 17 2 13
BITMAP
1FF0
3FFC
7FFE
F00E
E007
E007
E007
E007
E007
E007
E007
E007
E007
F00E
7FFE
3FFC
0FF8
ENDCHAR
STARTCHAR 00BB
ENCODING 187
SWIDTH 480 0
DWIDTH 25 0
BBX 19 24 3 2
BITMAP
000400
300C00
781C00
781E00
3C1E00
3C0F00
1E0F00
1E0780
0F0780
0F03C0
0703C0
0781E0
0781E0
0781E0
0F03C0
0F03C0
1E0780
1E0700
3C0F00
3C1E00
781E00
783C00
F03C00
701800
ENDCHAR
STARTCHAR 00BC
ENCODING 188
SWIDTH 942 0
DWIDTH 49 0
BBX 43 30 3 0
BITMAP
03C0001C0000
07C000380000
0FC000380000
1FC000700000
3DC000700000
79C000E00000
F1C001E00000
61C001C00000
01C003C00F00
01C003801F00
01C007803F00
01C007007F00
01C00F00F700
01C00E01E700
01C01E01E700
01C01C03C700
01C038078700
01C0380F0700
01C0701E0700
01C0703E0700
01C0E03C0700
01C1E0780700
0001C07FFFE0
0003C07FFFE0
0003807FFFE0
000780000700
000700000700
000F00000700
000E00000700
001C00000700
ENDCHAR
STARTCHAR 00BD
ENCODING 189
SWIDTH 942 0
DWIDTH 49 0
BBX 44 30 3 0
BITMAP
03C000780000
07C000700000
0FC000E00000
1FC001E00000
3DC001C00000
79C003C00000
F1C003800000
61C007800000
01C00701FF00
01C00F07FFC0
01C00E0FFFE0
01C01E1E00F0
01C01C1C0070
01C0381C0070
01C0381C0070
01C0701C0070
01C0F0000070
01C0E0000070
01C1E00000F0
01C1C0007FE0
01C3C007FFC0
01C3800FFF00
0007801FC000
0007001E0000
000E001C0000
000E001C0000
001C001C0000
001C001FFFF0
0038001FFFF0
0078001FFFF0
ENDCHAR
STARTCHAR 00BE
ENCODING 190
SWIDTH 942 0
DWIDTH 49 0
BBX 46 30 2 0
BITMAP
1FFC00070000
7FFF000F0000
FFFF000E0000
F807801E0000
F003801C0000
F003803C0000
F00380380000
000780700000
03FF007003E0
03FF00E007E0
03FE01E00FE0
03FF01C01FE0
000783C03FE0
000383807DE0
E003878079E0
E0038700F1E0
E0038E01E1E0
F0078E03C1E0
FFFF1C07C1E0
7FFF3C0781E0
1FFC380F01E0
0000781E01E0
0000701FFFFC
0000F01FFFFC
0000E01FFFFC
0001C00001E0
0001C00001E0
0003800001E0
0007800001E0
0007000001E0
ENDCHAR
STARTCHAR 00BF
ENCODING 191
SWIDTH 480 0
DWIDTH 25 0
BBX 19 35 3 -5
BITMAP
00F800
00F800
00F800
00F800
00F800
000000
000000
000000
000000
000000
007800
007800
007800
007800
007800
007800
00F800
03F800
1FF000
3FE000
7F0000
F80000
F00000
F00000
F00000
F00000
F001E0
F001E0
F001E0
F001E0
F803E0
7FFFC0
7FFFC0
3FFF80
0FFE00
ENDCHAR
STARTCHAR 00C0
ENCODING 192
SWIDTH 557 0
DWIDTH 29 0
BBX 27 41 1 1
BITMAP
00C00000
01E00000
01F00000
00FC0000
003E0000
001F0000
00070000
00000000
00000000
00000000
00000000
001F0000
003F0000
003F8000
007F8000
007FC000
007BC000
00FBC000
00F1E000
00F1E000
01F1F000
01E0F000
03E0F000
03E0F800
03C07800
07C07800
07807C00
07803C00
0F803E00
0F001E00
1F001E00
1F001F00
1FFFFF00
3FFFFF80
3FFFFF80
3C000780
7C0007C0
780003C0
F80003C0
F00001E0
F00001E0
ENDCHAR
STARTCHAR 00C1
ENCODING 193
SWIDTH 557 0
DWIDTH 29 0
BBX 27 41 1 1
BITMAP
0000C000
0001E000
0003F000
000FC000
001F0000
003E0000
00380000
00000000
00000000
00000000
00000000
001F0000
003F0000
003F8000
007F8000
007FC000
007BC000
00FBC000
00F1E000
00F1E000
01F1F000
01E0F000
03E0F000
03E0F800
03C07800
07C07800
07807C00
07803C00
0F803E00
0F001E00
1F001E00
1F001F00
1FFFFF00
3FFFFF80
3FFFFF80
3C000780
7C0007C0
780003C0
F80003C0
F00001E0
F00001E0
ENDCHAR
STARTCHAR 00C2
ENCODING 194
SWIDTH 557 0
DWIDTH 29 0
BBX 27 41 1 0
BITMAP
000C0000
001E0000
003F0000
007F8000
01F3E000
03C0F000
03807000
01002000
00000000
00000000
00000000
001F0000
003F0000
003F8000
007F8000
007FC000
007BC000
00FBC000
00F1E000
00F1E000
01F1F000
01E0F000
03E0F000
03E0F800
03C07800
07C07800
07807C00
07803C00
0F803E00
0F001E00
1F001E00
1F001F00
1FFFFF00
3FFFFF80
3FFFFF80
3C000780
7C0007C0
780003C0
F80003C0
F00001E0
F00001E0
ENDCHAR
STARTCHAR 00C3
ENCODING 195
SWIDTH 557 0
DWIDTH 29 0
BBX 27 40 1 0
BITMAP
00F00000
01FE3000
03FFF800
070FF000
0303C000
00000000
00000000
00000000
00000000
00000000
001F0000
003F0000
003F8000
007F8000
007FC000
007BC000
00FBC000
00F1E000
00F1E000
01F1F000
01E0F000
03E0F000
03E0F800
03C07800
07C07800
07807C00
07803C00
0F803E00
0F001E00
1F001E00
1F001F00
1FFFFF00
3FFFFF80
3FFFFF80
3C000780
7C0007C0
780003C0
F80003C0
F00001E0
F00001E0
ENDCHAR
STARTCHAR 00C4
ENCODING 196
SWIDTH 557 0
DWIDTH 29 0
BBX 27 39 1 0
BITMAP
07C0F800
07C0F800
07C0F800
07C0F800
00000000
00000000
00000000
00000000
00000000
001F0000
003F0000
003F8000
007F8000
007FC000
007BC000
00FBC000
00F1E000
00F1E000
01F1F000
01E0F000
03E0F000
03E0F800
03C07800
07C07800
07807C00
07803C00
0F803E00
0F001E00
1F001E00
1F001F00
1FFFFF00
3FFFFF80
3FFFFF80
3C000780
7C0007C0
780003C0
F80003C0
F00001E0
F00001E0
ENDCHAR
STARTCHAR 00C5
ENCODING 197
SWIDTH 557 0
DWIDTH 29 0
BBX 27 42 1 0
BITMAP
001E0000
007F8000
00E18000
00C0C000
00C0C000
00C0C000
00E1C000
007F8000
001E0000
00000000
00000000
00000000
001F0000
003F0000
003F8000
007F8000
007FC000
007BC000
00FBC000
00F1E000
00F1E000
01F1F000
01E0F000
03E0F000
03E0F800
03C07800
07C07800
07807C00
07803C00
0F803E00
0F001E00
1F001E00
1F001F00
1FFFFF00
3FFFFF80
3FFFFF80
3C000780
7C0007C0
780003C0
F80003C0
F00001E0
F00001E0
ENDCHAR
STARTCHAR 00C6
ENCODING 198
SWIDTH 846 0
DWIDTH 44 0
BBX 40 30 1 0
BITMAP
0000FFFFFF
0001FFFFFF
0001FFFFFF
0003FFFFFF
0003C78000
0007C78000
0007878000
000F878000
000F078000
001F078000
003E078000
003C078000
007C078000
007807FFFF
00F807FFFF
00F007FFFF
01F007FFFF
01E0078000
03E0078000
07C0078000
07FFFF8000
0FFFFF8000
0FFFFF8000
1FFFFF8000
1E00078000
3E00078000
3C0007FFFF
7C0007FFFF
F80007FFFF
F80007FFFF
ENDCHAR
STARTCHAR 00C7
ENCODING 199
SWIDTH 557 0
DWIDTH 29 0
BBX 24 40 3 -10
BITMAP
03FFE0
1FFFF8
3FFFFC
7FFFFE
7C003E
F8001F
F0000F
F0000F
F0000F
F0000F
F00000
F00000
F00000
F00000
F00000
F00000
F00000
F00000
F00000
F00000
F0000F
F0000F
F0000F
F0000F
F8000F
78001F
7C003E
7FFFFE
3FFFFC
1FFFF8
07FFE0
000700
000700
000700
000F00
001F00
00FE00
00FE00
00FC00
00F000
ENDCHAR
STARTCHAR 00C8
ENCODING 200
SWIDTH 500 0
DWIDTH 26 0
BBX 20 41 4 1
BITMAP
060000
0F0000
0F8000
07E000
01F000
00F800
003800
000000
000000
000000
000000
FFFFF0
FFFFF0
FFFFF0
FFFFF0
F00000
F00000
F00000
F00000
F00000
F00000
F00000
F00000
F00000
FFFFE0
FFFFE0
FFFFE0
FFFFE0
F00000
F00000
F00000
F00000
F00000
F00000
F00000
F00000
F00000
FFFFF0
FFFFF0
FFFFF0
FFFFF0
ENDCHAR
STARTCHAR 00C9
ENCODING 201
SWIDTH 500 0
DWIDTH 26 0
BBX 20 41 4 1
BITMAP
000600
000F00
001F80
007E00
00F800
01F000
01C000
000000
000000
000000
000000
FFFFF0
FFFFF0
FFFFF0
FFFFF0
F00000
F00000
F00000
F00000
F00000
F00000
F00000
F00000
F00000
FFFFE0
FFFFE0
FFFFE0
FFFFE0
F00000
F00000
F00000
F00000
F00000
F00000
F00000
F00000
F00000
FFFFF0
FFFFF0
FFFFF0
FFFFF0
ENDCHAR
STARTCHAR 00CA
ENCODING 202
SWIDTH 500 0
DWIDTH 26 0
BBX 20 41 4 0
BITMAP
006000
00F000
01F800
03FC00
0F9F00
1E0780
1C0380
080100
000000
000000
000000
FFFFF0
FFFFF0
FFFFF0
FFFFF0
F00000
F00000
F00000
F00000
F00000
F00000
F00000
F00000
F00000
FFFFE0
FFFFE0
FFFFE0
FFFFE0
F00000
F00000
F00000
F00000
F00000
F00000
F00000
F00000
F00000
FFFFF0
FFFFF0
FFFFF0
FFFFF0
ENDCHAR
STARTCHAR 00CB
ENCODING 203
SWIDTH 500 0
DWIDTH 26 0
BBX 20 39 4 0
BITMAP
3E07C0
3E07C0
3E07C0
3E07C0
000000
000000
000000
000000
000000
FFFFF0
FFFFF0
FFFFF0
FFFFF0
F00000
F00000
F00000
F00000
F00000
F00000
F00000
F00000
F00000
FFFFE0
FFFFE0
FFFFE0
FFFFE0
F00000
F00000
F00000
F00000
F00000
F00000
F00000
F00000
F00000
FFFFF0
FFFFF0
FFFFF0
FFFFF0
ENDCHAR
STARTCHAR 00CC
ENCODING 204
SWIDTH 211 0
DWIDTH 11 0
BBX 9 41 0 1
BITMAP
6000
F000
F800
7E00
1F00
0F80
0380
0000
0000
0000
0000
0F00
0F00
0F00
0F00
0F00
0F00
0F00
0F00
0F00
0F00
0F00
0F00
0F00
0F00
0F00
0F00
0F00
0F00
0F00
0F00
0F00
0F00
0F00
0F00
0F00
0F00
0F00
0F00
0F00
0F00
ENDCHAR
STARTCHAR 00CD
ENCODING 205
SWIDTH 211 0
DWIDTH 11 0
BBX 10 41 3 1
BITMAP
0300
0780
0FC0
3F00
7C00
F800
E000
0000
0000
0000
0000
7800
7800
7800
7800
7800
7800
7800
7800
7800
7800
7800
7800
7800
7800
7800
7800
7800
7800
7800
7800
7800
7800
7800
7800
7800
7800
7800
7800
7800
7800
ENDCHAR
STARTCHAR 00CE
ENCODING 206
SWIDTH 211 0
DWIDTH 11 0
BBX 15 41 -2 0
BITMAP
0100
03C0
07E0
1FF0
3E78
783E
F01E
6004
0000
0000
0000
03C0
03C0
03C0
03C0
03C0
03C0
03C0
03C0
03C0
03C0
03C0
03C0
03C0
03C0
03C0
03C0
03C0
03C0
03C0
03C0
03C0
03C0
03C0
03C0
03C0
03C0
03C0
03C0
03C0
03C0
ENDCHAR
STARTCHAR 00CF
ENCODING 207
SWIDTH 211 0
DWIDTH 11 0
BBX 12 39 0 0
BITMAP
F9F0
F9F0
F9F0
F9F0
0000
0000
0000
0000
0000
0F00
0F00
0F00
0F00
0F00
0F00
0F00
0F00
0F00
0F00
0F00
0F00
0F00
0F00
0F00
0F00
0F00
0F00
0F00
0F00
0F00
0F00
0F00
0F00
0F00
0F00
0F00
0F00
0F00
0F00
ENDCHAR
STARTCHAR 00D0
ENCODING 208
SWIDTH 615 0
DWIDTH 32 0
BBX 29 30 1 0
BITMAP
1FFFFE00
1FFFFF80
1FFFFFC0
1FFFFFE0
1E0003F0
1E0000F0
1E0000F0
1E000070
1E000078
1E000078
1E000078
1E000078
1E000078
1E000078
FFFE0078
FFFE0078
FFFE0078
1E000078
1E000078
1E000078
1E000078
1E000078
1E0000F8
1E0000F8
1E0001F0
1E0007F0
1FFFFFE0
1FFFFFC0
1FFFFF80
1FFFFE00
ENDCHAR
STARTCHAR 00D1
ENCODING 209
SWIDTH 653 0
DWIDTH 34 0
BBX 26 40 4 0
BITMAP
00F00000
01FE3000
03FFF800
070FF000
0303C000
00000000
00000000
00000000
00000000
00000000
FC0003C0
FE0003C0
FE0003C0
FF0003C0
FF8003C0
F78003C0
F3C003C0
F3C003C0
F1E003C0
F0F003C0
F0F003C0
F07803C0
F07C03C0
F03C03C0
F01E03C0
F01E03C0
F00F03C0
F00F83C0
F00783C0
F003C3C0
F003C3C0
F001E3C0
F001F3C0
F000F3C0
F0007BC0
F0007FC0
F0003FC0
F0001FC0
F0001FC0
F0000FC0
ENDCHAR
STARTCHAR 00D2
ENCODING 210
SWIDTH 596 0
DWIDTH 31 0
BBX 27 41 2 1
BITMAP
00C00000
01E00000
01F00000
00FC0000
003E0000
001F0000
00070000
00000000
00000000
00000000
00000000
03FFF800
0FFFFE00
1FFFFF00
3FFFFF80
7E000FC0
7C0007C0
F80003C0
F80003E0
F80003E0
F00001E0
F00001E0
F00001E0
F00001E0
F00001E0
F00001E0
F00001E0
F00001E0
F00001E0
F00001E0
F00001E0
F00001E0
F80003E0
F80003E0
F80003E0
7C0007C0
7E000FC0
3FFFFF80
3FFFFF80
0FFFFE00
03FFF800
ENDCHAR
STARTCHAR 00D3
ENCODING 211
SWIDTH 596 0
DWIDTH 31 0
BBX 27 41 2 1
BITMAP
0000C000
0001E000
0003F000
000FC000
001F0000
003E0000
00380000
00000000
00000000
00000000
00000000
03FFF800
0FFFFE00
1FFFFF00
3FFFFF80
7E000FC0
7C0007C0
F80003C0
F80003E0
F80003E0
F00001E0
F00001E0
F00001E0
F00001E0
F00001E0
F00001E0
F00001E0
F00001E0
F00001E0
F00001E0
F00001E0
F00001E0
F80003E0
F80003E0
F80003E0
7C0007C0
7E000FC0
3FFFFF80
3FFFFF80
0FFFFE00
03FFF800
ENDCHAR
STARTCHAR 00D4
ENCODING 212
SWIDTH 596 0
DWIDTH 31 0
BBX 27 41 2 0
BITMAP
000C0000
001E0000
003F0000
007F8000
01F3E000
03C0F000
03807000
01002000
00000000
00000000
00000000
03FFF800
0FFFFE00
1FFFFF00
3FFFFF80
7E000FC0
7C0007C0
F80003C0
F80003E0
F80003E0
F00001E0
F00001E0
F00001E0
F00001E0
F00001E0
F00001E0
F00001E0
F00001E0
F00001E0
F00001E0
F00001E0
F00001E0
F80003E0
F80003E0
F80003E0
7C0007C0
7E000FC0
3FFFFF80
3FFFFF80
0FFFFE00
03FFF800
ENDCHAR
STARTCHAR 00D5
ENCODING 213
SWIDTH 596 0
DWIDTH 31 0
BBX 27 40 2 0
BITMAP
00F00000
01FE3000
03FFF800
070FF000
0303C000
00000000
00000000
00000000
00000000
00000000
03FFF800
0FFFFE00
1FFFFF00
3FFFFF80
7E000FC0
7C0007C0
F80003C0
F80003E0
F80003E0
F00001E0
F00001E0
F00001E0
F00001E0
F00001E0
F00001E0
F00001E0
F00001E0
F00001E0
F00001E0
F00001E0
F00001E0
F80003E0
F80003E0
F80003E0
7C0007C0
7E000FC0
3FFFFF80
3FFFFF80
0FFFFE00
03FFF800
ENDCHAR
STARTCHAR 00D6
ENCODING 214
SWIDTH 596 0
DWIDTH 31 0
BBX 27 39 2 0
BITMAP
07C0F800
07C0F800
07C0F800
07C0F800
00000000
00000000
00000000
00000000
00000000
03FFF800
0FFFFE00
1FFFFF00
3FFFFF80
7E000FC0
7C0007C0
F80003C0
F80003E0
F80003E0
F00001E0
F00001E0
F00001E0
F00001E0
F00001E0
F00001E0
F00001E0
F00001E0
F00001E0
F00001E0
F00001E0
F00001E0
F80003E0
F80003E0
F80003E0
7C0007C0
7E000FC0
3FFFFF80
3FFFFF80
0FFFFE00
03FFF800
ENDCHAR
STARTCHAR 00D7
ENCODING 215
SWIDTH 519 0
DWIDTH 27 0
BBX 21 21 3 4
BITMAP
600030
F00078
F800F8
7C01F0
3E03E0
1F07C0
0F8F80
07DF00
03FE00
01FC00
00F800
01FC00
03FE00
07DF00
0F8F80
1F07C0
3E03E0
7C01F0
F800F8
F00078
600030
ENDCHAR
STARTCHAR 00D8
ENCODING 216
SWIDTH 538 0
DWIDTH 28 0
BBX 26 31 1 0
BITMAP
03FFF040
1FFFFCC0
3FFFFFC0
7FFFFFC0
7C001F80
78000F80
F0001F80
F0003FC0
F0007BC0
F000F3C0
F001F3C0
F003E3C0
F007C3C0
F00F83C0
F01F03C0
F01E03C0
F03C03C0
F07803C0
F0F003C0
F1E003C0
F3C003C0
F78003C0
FF8003C0
FF0003C0
7E0003C0
7C000780
FE001F80
FFFFFF80
FFFFFF00
CFFFFE00
83FFF000
ENDCHAR
STARTCHAR 00D9
ENCODING 217
SWIDTH 615 0
DWIDTH 32 0
BBX 24 41 4 1
BITMAP
018000
03C000
03E000
01F800
007C00
003E00
000E00
000000
000000
000000
000000
F0000F
F0000F
F0000F
F0000F
F0000F
F0000F
F0000F
F0000F
F0000F
F0000F
F0000F
F0000F
F0000F
F0000F
F0000F
F0000F
F0000F
F0000F
F0000F
F0000F
F0000F
F0000F
F0000F
F0000F
F8001F
7C003E
7FFFFE
3FFFFC
1FFFF8
07FFE0
ENDCHAR
STARTCHAR 00DA
ENCODING 218
SWIDTH 615 0
DWIDTH 32 0
BBX 24 41 4 1
BITMAP
000180
0003C0
0007E0
001F80
003E00
007C00
007000
000000
000000
000000
000000
F0000F
F0000F
F0000F
F0000F
F0000F
F0000F
F0000F
F0000F
F0000F
F0000F
F0000F
F0000F
F0000F
F0000F
F0000F
F0000F
F0000F
F0000F
F0000F
F0000F
F0000F
F0000F
F0000F
F0000F
F8001F
7C003E
7FFFFE
3FFFFC
1FFFF8
07FFE0
ENDCHAR
STARTCHAR 00DB
ENCODING 219
SWIDTH 615 0
DWIDTH 32 0
BBX 24 41 4 0
BITMAP
001800
003C00
007E00
00FF00
03E7C0
0781E0
0700E0
020040
000000
000000
000000
F0000F
F0000F
F0000F
F0000F
F0000F
F0000F
F0000F
F0000F
F0000F
F0000F
F0000F
F0000F
F0000F
F0000F
F0000F
F0000F
F0000F
F0000F
F0000F
F0000F
F0000F
F0000F
F0000F
F0000F
F8001F
7C003E
7FFFFE
3FFFFC
1FFFF8
07FFE0
ENDCHAR
STARTCHAR 00DC
ENCODING 220
SWIDTH 615 0
DWIDTH 32 0
BBX 24 39 4 0
BITMAP
0F81F0
0F81F0
0F81F0
0F81F0
000000
000000
000000
000000
000000
F0000F
F0000F
F0000F
F0000F
F0000F
F0000F
F0000F
F0000F
F0000F
F0000F
F0000F
F0000F
F0000F
F0000F
F0000F
F0000F
F0000F
F0000F
F0000F
F0000F
F0000F
F0000F
F0000F
F0000F
F8001F
7C003E
7FFFFE
3FFFFC
1FFFF8
07FFE0
ENDCHAR
STARTCHAR 00DD
ENCODING 221
SWIDTH 519 0
DWIDTH 27 0
BBX 26 41 0 1
BITMAP
00006000
0000F000
0001F800
0007E000
000F8000
001F0000
001C0000
00000000
00000000
00000000
00000000
F80007C0
780007C0
7C000F80
3E001F00
1E001F00
1F003E00
0F803C00
07807C00
07C0F800
03E0F000
03E1F000
01F3E000
00FBC000
00FFC000
007F8000
003F0000
003F0000
001E0000
001E0000
001E0000
001E0000
001E0000
001E0000
001E0000
001E0000
001E0000
001E0000
001E0000
001E0000
001E0000
ENDCHAR
STARTCHAR 00DE
ENCODING 222
SWIDTH 557 0
DWIDTH 29 0
BBX 23 30 4 0
BITMAP
F00000
F00000
F00000
F00000
F00000
F00000
FFFFC0
FFFFF0
FFFFF8
FFFFFC
F0003C
F0001E
F0001E
F0001E
F0001E
F0001E
F0001E
F0001E
F0001E
F0007C
FFFFFC
FFFFF8
FFFFF8
FFFFE0
F00000
F00000
F00000
F00000
F00000
F00000
ENDCHAR
STARTCHAR 00DF
ENCODING 223
SWIDTH 538 0
DWIDTH 28 0
BBX 22 33 3 -2
BITMAP
0FFF80
3FFFE0
7FFFF0
7FFFF8
FC00F8
F00078
F0007C
F0007C
F0007C
F0007C
F0007C
F00078
F00078
F000F8
F0FFF0
F0FFE0
F0FFE0
F0FFF8
F00078
F0007C
F0003C
F0003C
F0003C
F0003C
F0003C
F0003C
F0007C
F000FC
F0FFF8
F0FFF8
F0FFF0
F0FFC0
F00000
ENDCHAR
STARTCHAR 00E0
ENCODING 224
SWIDTH 557 0
DWIDTH 29 0
BBX 27 41 1 1
BITMAP
00C00000
01E00000
01F00000
00FC0000
003E0000
001F0000
00070000
00000000
00000000
00000000
00000000
001F0000
003F0000
003F8000
007F8000
007FC000
007BC000
00FBC000
00F1E000
00F1E000
01F1F000
01E0F000
03E0F000
03E0F800
03C07800
07C07800
07807C00
07803C00
0F803E00
0F001E00
1F001E00
1F001F00
1FFFFF00
3FFFFF80
3FFFFF80
3C000780
7C0007C0
780003C0
F80003C0
F00001E0
F00001E0
ENDCHAR
STARTCHAR 00E1
ENCODING 225
SWIDTH 557 0
DWIDTH 29 0
BBX 27 41 1 1
BITMAP
0000C000
0001E000
0003F000
000FC000
001F0000
003E0000
00380000
00000000
00000000
00000000
00000000
001F0000
003F0000
003F8000
007F8000
007FC000
007BC000
00FBC000
00F1E000
00F1E000
01F1F000
01E0F000
03E0F000
03E0F800
03C07800
07C07800
07807C00
07803C00
0F803E00
0F001E00
1F001E00
1F001F00
1FFFFF00
3FFFFF80
3FFFFF80
3C000780
7C0007C0
780003C0
F80003C0
F00001E0
F00001E0
ENDCHAR
STARTCHAR 00E2
ENCODING 226
SWIDTH 557 0
DWIDTH 29 0
BBX 27 41 1 0
BITMAP
000C0000
001E0000
003F0000
007F8000
01F3E000
03C0F000
03807000
01002000
00000000
00000000
00000000
001F0000
003F0000
003F8000
007F8000
007FC000
007BC000
00FBC000
00F1E000
00F1E000
01F1F000
01E0F000
03E0F000
03E0F800
03C07800
07C07800
07807C00
07803C00
0F803E00
0F001E00
1F001E00
1F001F00
1FFFFF00
3FFFFF80
3FFFFF80
3C000780
7C0007C0
780003C0
F80003C0
F00001E0
F00001E0
ENDCHAR
STARTCHAR 00E3
ENCODING 227
SWIDTH 557 0
DWIDTH 29 0
BBX 27 40 1 0
BITMAP
00F00000
01FE3000
03FFF800
070FF000
0303C000
00000000
00000000
00000000
00000000
00000000
001F0000
003F0000
003F8000
007F8000
007FC000
007BC000
00FBC000
00F1E000
00F1E000
01F1F000
01E0F000
03E0F000
03E0F800
03C07800
07C07800
07807C00
07803C00
0F803E00
0F001E00
1F001E00
1F001F00
1FFFFF00
3FFFFF80
3FFFFF80
3C000780
7C0007C0
780003C0
F80003C0
F00001E0
F00001E0
ENDCHAR
STARTCHAR 00E4
ENCODING 228
SWIDTH 557 0
DWIDTH 29 0
BBX 27 39 1 0
BITMAP
07C0F800
07C0F800
07C0F800
07C0F800
00000000
00000000
00000000
00000000
00000000
001F0000
003F0000
003F8000
007F8000
007FC000
007BC000
00FBC000
00F1E000
00F1E000
01F1F000
01E0F000
03E0F000
03E0F800
03C07800
07C07800
07807C00
07803C00
0F803E00
0F001E00
1F001E00
1F001F00
1FFFFF00
3FFFFF80
3FFFFF80
3C000780
7C0007C0
780003C0
F80003C0
F00001E0
F00001E0
ENDCHAR
STARTCHAR 00E5
ENCODING 229
SWIDTH 557 0
DWIDTH 29 0
BBX 27 42 1 0
BITMAP
001E0000
007F8000
00E18000
00C0C000
00C0C000
00C0C000
00E1C000
007F8000
001E0000
00000000
00000000
00000000
001F0000
003F0000
003F8000
007F8000
007FC000
007BC000
00FBC000
00F1E000
00F1E000
01F1F000
01E0F000
03E0F000
03E0F800
03C07800
07C07800
07807C00
07803C00
0F803E00
0F001E00
1F001E00
1F001F00
1FFFFF00
3FFFFF80
3FFFFF80
3C000780
7C0007C0
780003C0
F80003C0
F00001E0
F00001E0
ENDCHAR
STARTCHAR 00E6
ENCODING 230
SWIDTH 846 0
DWIDTH 44 0
BBX 40 30 1 0
BITMAP
0000FFFFFF
0001FFFFFF
0001FFFFFF
0003FFFFFF
0003C78000
0007C78000
0007878000
000F878000
000F078000
001F078000
003E078000
003C078000
007C078000
007807FFFF
00F807FFFF
00F007FFFF
01F007FFFF
01E0078000
03E0078000
07C0078000
07FFFF8000
0FFFFF8000
0FFFFF8000
1FFFFF8000
1E00078000
3E00078000
3C0007FFFF
7C0007FFFF
F80007FFFF
F80007FFFF
ENDCHAR
STARTCHAR 00E7
ENCODING 231
SWIDTH 557 0
DWIDTH 29 0
BBX 24 40 3 -10
BITMAP
03FFE0
1FFFF8
3FFFFC
7FFFFE
7C003E
F8001F
F0000F
F0000F
F0000F
F0000F
F00000
F00000
F00000
F00000
F00000
F00000
F00000
F00000
F00000
F00000
F0000F
F0000F
F0000F
F0000F
F8000F
78001F
7C003E
7FFFFE
3FFFFC
1FFFF8
07FFE0
000700
000700
000700
000F00
001F00
00FE00
00FE00
00FC00
00F000
ENDCHAR
STARTCHAR 00E8
ENCODING 232
SWIDTH 500 0
DWIDTH 26 0
BBX 20 41 4 1
BITMAP
060000
0F0000
0F8000
07E000
01F000
00F800
003800
000000
000000
000000
000000
FFFFF0
FFFFF0
FFFFF0
FFFFF0
F00000
F00000
F00000
F00000
F00000
F00000
F00000
F00000
F00000
FFFFE0
FFFFE0
FFFFE0
FFFFE0
F00000
F00000
F00000
F00000
F00000
F00000
F00000
F00000
F00000
FFFFF0
FFFFF0
FFFFF0
FFFFF0
ENDCHAR
STARTCHAR 00E9
ENCODING 233
SWIDTH 500 0
DWIDTH 26 0
BBX 20 41 4 1
BITMAP
000600
000F00
001F80
007E00
00F800
01F000
01C000
000000
000000
000000
000000
FFFFF0
FFFFF0
FFFFF0
FFFFF0
F00000
F00000
F00000
F00000
F00000
F00000
F00000
F00000
F00000
FFFFE0
FFFFE0
FFFFE0
FFFFE0
F00000
F00000
F00000
F00000
F00000
F00000
F00000
F00000
F00000
FFFFF0
FFFFF0
FFFFF0
FFFFF0
ENDCHAR
STARTCHAR 00EA
ENCODING 234
SWIDTH 500 0
DWIDTH 26 0
BBX 20 41 4 0
BITMAP
006000
00F000
01F800
03FC00
0F9F00
1E0780
1C0380
080100
000000
000000
000000
FFFFF0
FFFFF0
FFFFF0
FFFFF0
F00000
F00000
F00000
F00000
F00000
F00000
F00000
F00000
F00000
FFFFE0
FFFFE0
FFFFE0
FFFFE0
F00000
F00000
F00000
F00000
F00000
F00000
F00000
F00000
F00000
FFFFF0
FFFFF0
FFFFF0
FFFFF0
ENDCHAR
STARTCHAR 00EB
ENCODING 235
SWIDTH 500 0
DWIDTH 26 0
BBX 20 39 4 0
BITMAP
3E07C0
3E07C0
3E07C0
3E07C0
000000
000000
000000
000000
000000
FFFFF0
FFFFF0
FFFFF0
FFFFF0
F00000
F00000
F00000
F00000
F00000
F00000
F00000
F00000
F00000
FFFFE0
FFFFE0
FFFFE0
FFFFE0
F00000
F00000
F00000
F00000
F00000
F00000
F00000
F00000
F00000
FFFFF0
FFFFF0
FFFFF0
FFFFF0
ENDCHAR
STARTCHAR 00EC
ENCODING 236
SWIDTH 211 0
DWIDTH 11 0
BBX 9 41 0 1
BITMAP
6000
F000
F800
7E00
1F00
0F80
0380
0000
0000
0000
0000
0F00
0F00
0F00
0F00
0F00
0F00
0F00
0F00
0F00
0F00
0F00
0F00
0F00
0F00
0F00
0F00
0F00
0F00
0F00
0F00
0F00
0F00
0F00
0F00
0F00
0F00
0F00
0F00
0F00
0F00
ENDCHAR
STARTCHAR 00ED
ENCODING 237
SWIDTH 211 0
DWIDTH 11 0
BBX 10 41 3 1
BITMAP
0300
0780
0FC0
3F00
7C00
F800
E000
0000
0000
0000
0000
7800
7800
7800
7800
7800
7800
7800
7800
7800
7800
7800
7800
7800
7800
7800
7800
7800
7800
7800
7800
7800
7800
7800
7800
7800
7800
7800
7800
7800
7800
ENDCHAR
STARTCHAR 00EE
ENCODING 238
SWIDTH 211 0
DWIDTH 11 0
BBX 15 41 -2 0
BITMAP
0100
03C0
07E0
1FF0
3E78
783E
F01E
6004
0000
0000
0000
03C0
03C0
03C0
03C0
03C0
03C0
03C0
03C0
03C0
03C0
03C0
03C0
03C0
03C0
03C0
03C0
03C0
03C0
03C0
03C0
03C0
03C0
03C0
03C0
03C0
03C0
03C0
03C0
03C0
03C0
ENDCHAR
STARTCHAR 00EF
ENCODING 239
SWIDTH 211 0
DWIDTH 11 0
BBX 12 39 0 0
BITMAP
F9F0
F9F0
F9F0
F9F0
0000
0000
0000
0000
0000
0F00
0F00
0F00
0F00
0F00
0F00
0F00
0F00
0F00
0F00
0F00
0F00
0F00
0F00
0F00
0F00
0F00
0F00
0F00
0F00
0F00
0F00
0F00
0F00
0F00
0F00
0F00
0F00
0F00
0F00
ENDCHAR
STARTCHAR 00F0
ENCODING 240
SWIDTH 615 0
DWIDTH 32 0
BBX 29 30 1 0
BITMAP
1FFFFE00
1FFFFF80
1FFFFFC0
1FFFFFE0
1E0003F0
1E0001F0
1E0000F0
1E0000F0
1E000078
1E000078
1E000078
1E000078
1E000078
1E000078
FFFE0078
FFFE0078
FFFE0078
1E000078
1E000078
1E000078
1E000078
1E000078
1E0000F8
1E0000F0
1E0001F0
1E0007F0
1FFFFFE0
1FFFFFC0
1FFFFF80
1FFFFC00
ENDCHAR
STARTCHAR 00F1
ENCODING 241
SWIDTH 653 0
DWIDTH 34 0
BBX 26 40 4 0
BITMAP
00F00000
01FE3000
03FFF800
070FF000
0303C000
00000000
00000000
00000000
00000000
00000000
FC0003C0
FE0003C0
FE0003C0
FF0003C0
FF8003C0
F78003C0
F3C003C0
F3C003C0
F1E003C0
F0F003C0
F0F003C0
F07803C0
F07C03C0
F03C03C0
F01E03C0
F01E03C0
F00F03C0
F00F83C0
F00783C0
F003C3C0
F003C3C0
F001E3C0
F001F3C0
F000F3C0
F0007BC0
F0007FC0
F0003FC0
F0001FC0
F0001FC0
F0000FC0
ENDCHAR
STARTCHAR 00F2
ENCODING 242
SWIDTH 596 0
DWIDTH 31 0
BBX 27 41 2 1
BITMAP
00C00000
01E00000
01F00000
00FC0000
003E0000
001F0000
00070000
00000000
00000000
00000000
00000000
03FFF800
0FFFFE00
1FFFFF00
3FFFFF80
7E000FC0
7C0007C0
F80003C0
F80003E0
F80003E0
F00001E0
F00001E0
F00001E0
F00001E0
F00001E0
F00001E0
F00001E0
F00001E0
F00001E0
F00001E0
F00001E0
F00001E0
F80003E0
F80003E0
F80003E0
7C0007C0
7E000FC0
3FFFFF80
3FFFFF80
0FFFFE00
03FFF800
ENDCHAR
STARTCHAR 00F3
ENCODING 243
SWIDTH 596 0
DWIDTH 31 0
BBX 27 41 2 1
BITMAP
0000C000
0001E000
0003F000
000FC000
001F0000
003E0000
00380000
00000000
00000000
00000000
00000000
03FFF800
0FFFFE00
1FFFFF00
3FFFFF80
7E000FC0
7C0007C0
F80003C0
F80003E0
F80003E0
F00001E0
F00001E0
F00001E0
F00001E0
F00001E0
F00001E0
F00001E0
F00001E0
F00001E0
F00001E0
F00001E0
F00001E0
F80003E0
F80003E0
F80003E0
7C0007C0
7E000FC0
3FFFFF80
3FFFFF80
0FFFFE00
03FFF800
ENDCHAR
STARTCHAR 00F4
ENCODING 244
SWIDTH 596 0
DWIDTH 31 0
BBX 27 41 2 0
BITMAP
000C0000
001E0000
003F0000
007F8000
01F3E000
03C0F000
03807000
01002000
00000000
00000000
00000000
03FFF800
0FFFFE00
1FFFFF00
3FFFFF80
7E000FC0
7C0007C0
F80003C0
F80003E0
F80003E0
F00001E0
F00001E0
F00001E0
F00001E0
F00001E0
F00001E0
F00001E0
F00001E0
F00001E0
F00001E0
F00001E0
F00001E0
F80003E0
F80003E0
F80003E0
7C0007C0
7E000FC0
3FFFFF80
3FFFFF80
0FFFFE00
03FFF800
ENDCHAR
STARTCHAR 00F5
ENCODING 245
SWIDTH 596 0
DWIDTH 31 0
BBX 27 40 2 0
BITMAP
00F00000
01FE3000
03FFF800
070FF000
0303C000
00000000
00000000
00000000
00000000
00000000
03FFF800
0FFFFE00
1FFFFF00
3FFFFF80
7E000FC0
7C0007C0
F80003C0
F80003E0
F80003E0
F00001E0
F00001E0
F00001E0
F00001E0
F00001E0
F00001E0
F00001E0
F00001E0
F00001E0
F00001E0
F00001E0
F00001E0
F80003E0
F80003E0
F80003E0
7C0007C0
7E000FC0
3FFFFF80
3FFFFF80
0FFFFE00
03FFF800
ENDCHAR
STARTCHAR 00F6
ENCODING 246
SWIDTH 596 0
DWIDTH 31 0
BBX 27 39 2 0
BITMAP
07C0F800
07C0F800
07C0F800
07C0F800
00000000
00000000
00000000
00000000
00000000
03FFF800
0FFFFE00
1FFFFF00
3FFFFF80
7E000FC0
7C0007C0
F80003C0
F80003E0
F80003E0
F00001E0
F00001E0
F00001E0
F00001E0
F00001E0
F00001E0
F00001E0
F00001E0
F00001E0
F00001E0
F00001E0
F00001E0
F80003E0
F80003E0
F80003E0
7C0007C0
7E000FC0
3FFFFF80
3FFFFF80
0FFFFE00
03FFF800
ENDCHAR
STARTCHAR 00F7
ENCODING 247
SWIDTH 519 0
DWIDTH 27 0
BBX 24 21 2 4
BITMAP
001C00
003E00
003E00
003E00
001C00
000000
000000
000000
000000
FFFFFF
FFFFFF
FFFFFF
000000
000000
000000
000000
001C00
003E00
003E00
003E00
001C00
ENDCHAR
STARTCHAR 00F8
ENCODING 248
SWIDTH 557 0
DWIDTH 29 0
BBX 27 32 1 -1
BITMAP
00000020
03FFF860
0FFFFEE0
1FFFFFE0
3FFFFFC0
7E0007C0
78000FC0
78000FE0
F0001FE0
F0003DE0
F00079E0
F000F1E0
F001E1E0
F003C1E0
F00781E0
F00F01E0
F01E01E0
F03C01E0
F07801E0
F0F001E0
F1E001E0
F3C001E0
F78001E0
FF0003E0
7E0003E0
7E0003C0
7C000FC0
7FFFFF80
FFFFFF80
FFFFFE00
C3FFF800
80000000
ENDCHAR
STARTCHAR 00F9
ENCODING 249
SWIDTH 615 0
DWIDTH 32 0
BBX 24 41 4 1
BITMAP
018000
03C000
03E000
01F800
007C00
003E00
000E00
000000
000000
000000
000000
F0000F
F0000F
F0000F
F0000F
F0000F
F0000F
F0000F
F0000F
F0000F
F0000F
F0000F
F0000F
F0000F
F0000F
F0000F
F0000F
F0000F
F0000F
F0000F
F0000F
F0000F
F0000F
F0000F
F0000F
F8001F
7C003E
7FFFFE
3FFFFC
1FFFF8
07FFE0
ENDCHAR
STARTCHAR 00FA
ENCODING 250
SWIDTH 615 0
DWIDTH 32 0
BBX 24 41 4 1
BITMAP
000180
0003C0
0007E0
001F80
003E00
007C00
007000
000000
000000
000000
000000
F0000F
F0000F
F0000F
F0000F
F0000F
F0000F
F0000F
F0000F
F0000F
F0000F
F0000F
F0000F
F0000F
F0000F
F0000F
F0000F
F0000F
F0000F
F0000F
F0000F
F0000F
F0000F
F0000F
F0000F
F8001F
7C003E
7FFFFE
3FFFFC
1FFFF8
07FFE0
ENDCHAR
STARTCHAR 00FB
ENCODING 251
SWIDTH 615 0
DWIDTH 32 0
BBX 24 41 4 0
BITMAP
001800
003C00
007E00
00FF00
03E7C0
0781E0
0700E0
020040
000000
000000
000000
F0000F
F0000F
F0000F
F0000F
F0000F
F0000F
F0000F
F0000F
F0000F
F0000F
F0000F
F0000F
F0000F
F0000F
F0000F
F0000F
F0000F
F0000F
F0000F
F0000F
F0000F
F0000F
F0000F
F0000F
F8001F
7C003E
7FFFFE
3FFFFC
1FFFF8
07FFE0
ENDCHAR
STARTCHAR 00FC
ENCODING 252
SWIDTH 615 0
DWIDTH 32 0
BBX 24 39 4 0
BITMAP
0F81F0
0F81F0
0F81F0
0F81F0
000000
000000
000000
000000
000000
F0000F
F0000F
F0000F
F0000F
F0000F
F0000F
F0000F
F0000F
F0000F
F0000F
F0000F
F0000F
F0000F
F0000F
F0000F
F0000F
F0000F
F0000F
F0000F
F0000F
F0000F
F0000F
F0000F
F0000F
F8001F
7C003E
7FFFFE
3FFFFC
1FFFF8
07FFE0
ENDCHAR
STARTCHAR 00FD
ENCODING 253
SWIDTH 519 0
DWIDTH 27 0
BBX 26 41 0 1
BITMAP
00006000
0000F000
0001F800
0007E000
000F8000
001F0000
001C0000
00000000
00000000
00000000
00000000
F80007C0
780007C0
7C000F80
3E001F00
1E001F00
1F003E00
0F803C00
07807C00
07C0F800
03E0F000
03E1F000
01F3E000
00FBC000
00FFC000
007F8000
003F0000
003F0000
001E0000
001E0000
001E0000
001E0000
001E0000
001E0000
001E0000
001E0000
001E0000
001E0000
001E0000
001E0000
001E0000
ENDCHAR
STARTCHAR 00FE
ENCODING 254
SWIDTH 538 0
DWIDTH 28 0
BBX 23 30 4 0
BITMAP
F00000
F00000
F00000
F00000
F00000
F00000
FFFFE0
FFFFF8
FFFFF8
FFFFFC
F0003C
F0001E
F0001E
F0001E
F0001E
F0001E
F0001E
F0001E
F0003E
F0007C
FFFFFC
FFFFF8
FFFFF8
FFFFE0
F00000
F00000
F00000
F00000
F00000
F00000
ENDCHAR
STARTCHAR 00FF
ENCODING 255
SWIDTH 519 0
DWIDTH 27 0
BBX 26 39 0 0
BITMAP
03E07C00
03E07C00
03E07C00
03E07C00
00000000
00000000
00000000
00000000
00000000
F80007C0
780007C0
7C000F80
3E001F00
1E001F00
1F003E00
0F803C00
07807C00
07C0F800
03E0F000
03E1F000
01F3E000
00FBC000
00FFC000
007F8000
003F0000
003F0000
001E0000
001E0000
001E0000
001E0000
001E0000
001E0000
001E0000
001E0000
001E0000
001E0000
001E0000
001E0000
001E0000
ENDCHAR
STARTCHAR 0106
ENCODING 262
SWIDTH 557 0
DWIDTH 29 0
BBX 25 41 2 1
BITMAP
0000C000
0001E000
0003F000
000FC000
001F0000
003E0000
00380000
00000000
00000000
00000000
00000000
03FFF000
0FFFFC00
3FFFFE00
3FFFFF00
7E001F00
78000780
F0000780
F0000780
F0000780
F0000780
F0000000
F0000000
F0000000
F0000000
F0000000
F0000000
F0000000
F0000000
F0000000
F0000000
F0000780
F0000780
F0000780
78000780
78000780
7E001F80
3FFFFF80
3FFFFF00
0FFFFE00
03FFF800
ENDCHAR
STARTCHAR 0107
ENCODING 263
SWIDTH 557 0
DWIDTH 29 0
BBX 25 41 2 1
BITMAP
0000C000
0001E000
0003F000
000FC000
001F0000
003E0000
00380000
00000000
00000000
00000000
00000000
03FFF000
0FFFFC00
3FFFFE00
3FFFFF00
7E001F00
78000780
F0000780
F0000780
F0000780
F0000780
F0000000
F0000000
F0000000
F0000000
F0000000
F0000000
F0000000
F0000000
F0000000
F0000000
F0000780
F0000780
F0000780
78000780
78000780
7E001F80
3FFFFF80
3FFFFF00
0FFFFE00
03FFF800
ENDCHAR
STARTCHAR 010C
ENCODING 268
SWIDTH 557 0
DWIDTH 29 0
BBX 25 41 2 0
BITMAP
02002000
07807000
03C1F000
01E3C000
00FF8000
007F0000
001E0000
00080000
00000000
00000000
00000000
03FFF000
0FFFFC00
3FFFFE00
3FFFFF00
7E001F00
78000780
F0000780
F0000780
F0000780
F0000780
F0000000
F0000000
F0000000
F0000000
F0000000
F0000000
F0000000
F0000000
F0000000
F0000000
F0000780
F0000780
F0000780
78000780
78000780
7E001F80
3FFFFF80
3FFFFF00
0FFFFE00
03FFF800
ENDCHAR
STARTCHAR 010D
ENCODING 269
SWIDTH 557 0
DWIDTH 29 0
BBX 25 41 2 0
BITMAP
02002000
07807000
03C1F000
01E3C000
00FF8000
007F0000
001E0000
00080000
00000000
00000000
00000000
03FFF000
0FFFFC00
3FFFFE00
3FFFFF00
7E001F00
78000780
F0000780
F0000780
F0000780
F0000780
F0000000
F0000000
F0000000
F0000000
F0000000
F0000000
F0000000
F0000000
F0000000
F0000000
F0000780
F0000780
F0000780
78000780
78000780
7E001F80
3FFFFF80
3FFFFF00
0FFFFE00
03FFF800
ENDCHAR
STARTCHAR 0111
ENCODING 273
SWIDTH 615 0
DWIDTH 32 0
BBX 29 30 1 0
BITMAP
1FFFFE00
1FFFFF80
1FFFFFC0
1FFFFFE0
1E0003F0
1E0001F0
1E0000F0
1E0000F0
1E000078
1E000078
1E000078
1E000078
1E000078
1E000078
FFFE0078
FFFE0078
FFFE0078
1E000078
1E000078
1E000078
1E000078
1E000078
1E0000F8
1E0000F0
1E0001F0
1E0007F0
1FFFFFE0
1FFFFFC0
1FFFFF80
1FFFFC00
ENDCHAR
STARTCHAR 011E
ENCODING 286
SWIDTH 576 0
DWIDTH 30 0
BBX 25 41 3 0
BITMAP
0E007000
0700E000
0700E000
0781E000
03C3C000
01FF8000
00FF0000
007C0000
00000000
00000000
00000000
03FFF800
1FFFFE00
3FFFFF00
3FFFFF00
7C001F80
78000780
F8000780
F0000780
F0000780
F0000000
F0000000
F0000000
F0000000
F0000000
F0000000
F00FFF80
F00FFF80
F00FFF80
F00FFF80
F0000780
F0000780
F0000780
F0000780
F0000780
78000F80
7E001F00
7FFFFF00
3FFFFE00
1FFFFC00
03FFF000
ENDCHAR
STARTCHAR 011F
ENCODING 287
SWIDTH 576 0
DWIDTH 30 0
BBX 25 41 3 0
BITMAP
0E007000
0700E000
0700E000
0781E000
03C3C000
01FF8000
00FF0000
007C0000
00000000
00000000
00000000
03FFF800
1FFFFE00
3FFFFF00
3FFFFF00
7C001F80
78000780
F8000780
F0000780
F0000780
F0000000
F0000000
F0000000
F0000000
F0000000
F0000000
F00FFF80
F00FFF80
F00FFF80
F00FFF80
F0000780
F0000780
F0000780
F0000780
F0000780
78000F80
7E001F00
7FFFFF00
3FFFFE00
1FFFFC00
03FFF000
ENDCHAR
STARTCHAR 0130
ENCODING 304
SWIDTH 230 0
DWIDTH 12 0
BBX 5 38 4 0
BITMAP
F8
F8
F8
F8
00
00
00
00
78
78
78
78
78
78
78
78
78
78
78
78
78
78
78
78
78
78
78
78
78
78
78
78
78
78
78
78
78
78
ENDCHAR
STARTCHAR 0131
ENCODING 305
SWIDTH 211 0
DWIDTH 11 0
BBX 4 30 4 0
BITMAP
F0
F0
F0
F0
F0
F0
F0
F0
F0
F0
F0
F0
F0
F0
F0
F0
F0
F0
F0
F0
F0
F0
F0
F0
F0
F0
F0
F0
F0
F0
ENDCHAR
STARTCHAR 0141
ENCODING 321
SWIDTH 480 0
DWIDTH 25 0
BBX 23 30 1 0
BITMAP
1E0000
1E0000
1E0000
1E0000
1E0000
1E0000
1E0000
1E0000
1E2000
1E6000
1EE000
1FE000
1FC000
1F8000
1F0000
1E0000
3E0000
7E0000
FE0000
DE0000
9E0000
9E0000
1E0000
1E0000
1E0000
1E0000
1FFFFE
1FFFFE
1FFFFE
1FFFFE
ENDCHAR
STARTCHAR 0142
ENCODING 322
SWIDTH 480 0
DWIDTH 25 0
BBX 23 30 1 0
BITMAP
0F0000
0F0000
0F0000
0F0000
0F0000
0F0000
0F0000
0F0000
0F0000
0F2000
0F6000
0FE000
0FC000
0F8000
0F8000
1F0000
3F0000
7F0000
FF0000
EF0000
CF0000
8F0000
0F0000
0F0000
0F0000
0F0000
0FFFFE
0FFFFE
0FFFFE
0FFFFE
ENDCHAR
STARTCHAR 0152
ENCODING 338
SWIDTH 884 0
DWIDTH 46 0
BBX 42 30 2 0
BITMAP
07FFF3FFFFC0
1FFFFBFFFFC0
3FFFFFFFFFC0
3FFFFFFFFFC0
7C000FC00000
780007C00000
F80003C00000
F00003C00000
F00003C00000
F00003C00000
F00003C00000
F00003C00000
F00003C00000
F00003FFFF80
F00003FFFF80
F00003FFFF80
F00003FFFF80
F00003C00000
F00003C00000
F00003C00000
F00003C00000
F00003C00000
F00003C00000
F80007C00000
F80007C00000
7C000FC00000
7FFFFFFFFFC0
3FFFFFFFFFC0
1FFFFBFFFFC0
07FFE3FFFFC0
ENDCHAR
STARTCHAR 0153
ENCODING 339
SWIDTH 884 0
DWIDTH 46 0
BBX 42 30 2 0
BITMAP
03FFE3FFFFC0
0FFFFBFFFFC0
1FFFFFFFFFC0
3FFFFFFFFFC0
7E001FC00000
780007C00000
F80007C00000
F00003C00000
F00003C00000
F00003C00000
F00003C00000
F00003C00000
F00003C00000
F00003FFFF80
F00003FFFF80
F00003FFFF80
F00003FFFF80
F00003C00000
F00003C00000
F00003C00000
F00003C00000
F00003C00000
F00003C00000
F80003C00000
780007C00000
7E001FC00000
3FFFFFFFFFC0
3FFFFFFFFFC0
0FFFFBFFFFC0
03FFE3FFFFC0
ENDCHAR
STARTCHAR 015E
ENCODING 350
SWIDTH 538 0
DWIDTH 28 0
BBX 24 40 2 -10
BITMAP
07FFC0
1FFFF8
3FFFFC
7FFFFC
FC007E
F8001E
F0001E
F0001E
F0001E
F00000
F00000
F00000
7C0000
7FFF80
3FFFF8
0FFFFC
0001FE
00001F
00000F
00000F
F0000F
F0000F
F0000F
F0000F
78001F
7C003F
7FFFFE
3FFFFE
1FFFFC
07FFE0
000000
000700
000700
000700
000F00
001F00
00FE00
00FE00
00FC00
00F000
ENDCHAR
STARTCHAR 015F
ENCODING 351
SWIDTH 538 0
DWIDTH 28 0
BBX 24 40 2 -10
BITMAP
07FFC0
1FFFF8
3FFFFC
7FFFFC
FC007E
F8001E
F0001E
F0001E
F0001E
F00000
F00000
F00000
7C0000
7FFF80
3FFFF8
0FFFFC
0001FE
00001F
00000F
00000F
F0000F
F0000F
F0000F
F0000F
78001F
7C003F
7FFFFE
3FFFFE
1FFFFC
07FFE0
000000
000700
000700
000700
000F00
001F00
00FE00
00FE00
00FC00
00F000
ENDCHAR
STARTCHAR 0160
ENCODING 352
SWIDTH 538 0
DWIDTH 28 0
BBX 24 41 2 0
BITMAP
020040
0700E0
0783E0
03E7C0
00FF00
007E00
003C00
001800
000000
000000
000000
07FFC0
1FFFF8
3FFFFC
7FFFFC
FC007E
F8001E
F0001E
F0001E
F0001E
F00000
F00000
F00000
7C0000
7FFF80
3FFFF8
0FFFFC
0001FE
00001F
00000F
00000F
F0000F
F0000F
F0000F
F0000F
78001F
7C003F
7FFFFE
3FFFFE
1FFFFC
07FFE0
ENDCHAR
STARTCHAR 0161
ENCODING 353
SWIDTH 538 0
DWIDTH 28 0
BBX 24 41 2 0
BITMAP
020040
0700E0
0783E0
03E7C0
00FF00
007E00
003C00
001800
000000
000000
000000
07FFC0
1FFFF8
3FFFFC
7FFFFC
FC007E
F8001E
F0001E
F0001E
F0001E
F00000
F00000
F00000
7C0000
7FFF80
3FFFF8
0FFFFC
0001FE
00001F
00000F
00000F
F0000F
F0000F
F0000F
F0000F
78001F
7C003F
7FFFFE
3FFFFE
1FFFFC
07FFE0
ENDCHAR
STARTCHAR 0178
ENCODING 376
SWIDTH 519 0
DWIDTH 27 0
BBX 26 39 0 0
BITMAP
03E07C00
03E07C00
03E07C00
03E07C00
00000000
00000000
00000000
00000000
00000000
F80007C0
780007C0
7C000F80
3E001F00
1E001F00
1F003E00
0F803C00
07807C00
07C0F800
03E0F000
03E1F000
01F3E000
00FBC000
00FFC000
007F8000
003F0000
003F0000
001E0000
001E0000
001E0000
001E0000
001E0000
001E0000
001E0000
001E0000
001E0000
001E0000
001E0000
001E0000
001E0000
ENDCHAR
STARTCHAR 017D
ENCODING 381
SWIDTH 519 0
DWIDTH 27 0
BBX 24 41 2 0
BITMAP
040040
0F00E0
0783E0
03C780
01FF00
00FE00
003C00
001000
000000
000000
000000
FFFFFE
FFFFFE
FFFFFE
FFFFFE
00007C
00007C
0000F8
0001F0
0003E0
0007C0
000780
000F80
001F00
003E00
007C00
007800
00F000
01F000
03E000
07C000
078000
0F0000
1E0000
3E0000
7C0000
780000
FFFFFF
FFFFFF
FFFFFF
FFFFFF
ENDCHAR
STARTCHAR 017E
ENCODING 382
SWIDTH 519 0
DWIDTH 27 0
BBX 24 41 2 0
BITMAP
040040
0F00E0
0783E0
03C780
01FF00
00FE00
003C00
001000
000000
000000
000000
FFFFFE
FFFFFE
FFFFFE
FFFFFE
00007C
00007C
0000F8
0001F0
0003E0
0007C0
000780
000F80
001F00
003E00
007C00
007800
00F000
01F000
03E000
07C000
078000
0F0000
1E0000
3E0000
7C0000
780000
FFFFFF
FFFFFF
FFFFFF
FFFFFF
ENDCHAR
STARTCHAR 0192
ENCODING 402
SWIDTH 384 0
DWIDTH 20 0
BBX 22 40 -2 -6
BITMAP
000004
0001F8
0007F8
000FF8
000F00
001E00
001E00
001E00
001E00
001E00
003C00
03FFF0
03FFE0
03FFE0
003C00
003800
007800
007800
007800
007800
007800
007000
00F000
00F000
00F000
00F000
00F000
01E000
01E000
01E000
01E000
01E000
01C000
03C000
03C000
03C000
87C000
FF8000
FF0000
FC0000
ENDCHAR
STARTCHAR 02C6
ENCODING 710
SWIDTH 500 0
DWIDTH 26 0
BBX 14 8 6 33
BITMAP
0300
0780
0FC0
1FE0
7CF8
F03C
E01C
4008
ENDCHAR
STARTCHAR 02C7
ENCODING 711
SWIDTH 500 0
DWIDTH 26 0
BBX 14 8 6 33
BITMAP
4008
E01C
F03C
7CF8
1FE0
0FC0
0780
0300
ENDCHAR
STARTCHAR 02C9
ENCODING 713
SWIDTH 500 0
DWIDTH 26 0
BBX 14 3 6 35
BITMAP
FFFC
FFFC
FFFC
ENDCHAR
STARTCHAR 02D8
ENCODING 728
SWIDTH 500 0
DWIDTH 26 0
BBX 16 8 5 33
BITMAP
E007
700E
700E
781E
3C3C
1FF8
0FF0
03C0
ENDCHAR
STARTCHAR 02D9
ENCODING 729
SWIDTH 500 0
DWIDTH 26 0
BBX 5 4 11 35
BITMAP
F8
F8
F8
F8
ENDCHAR
STARTCHAR 02DA
ENCODING 730
SWIDTH 500 0
DWIDTH 26 0
BBX 10 9 8 33
BITMAP
1E00
7F80
E180
C0C0
C0C0
C0C0
E1C0
7F80
1E00
ENDCHAR
STARTCHAR 02DB
ENCODING 731
SWIDTH 500 0
DWIDTH 26 0
BBX 8 10 16 -10
BITMAP
1C
38
70
E0
E0
E0
F0
7F
7F
1F
ENDCHAR
STARTCHAR 02DC
ENCODING 732
SWIDTH 500 0
DWIDTH 26 0
BBX 16 5 5 34
BITMAP
1E00
3FC6
7FFF
E1FE
6078
ENDCHAR
STARTCHAR 02DD
ENCODING 733
SWIDTH 500 0
DWIDTH 26 0
BBX 16 8 7 34
BITMAP
0606
0F0F
1F1F
3E3E
7878
F0F0
E0E0
4000
ENDCHAR
STARTCHAR 03C0
ENCODING 960
SWIDTH 557 0
DWIDTH 29 0
BBX 27 25 1 0
BITMAP
FFFFFFE0
FFFFFFE0
FFFFFFE0
0F001E00
0F001E00
0F001E00
0F001E00
0F001E00
0F001E00
0F001E00
0F001E00
0F001E00
0F001E00
0F001E00
0F001E00
0F001E00
0F001E00
0F001E00
0F001E00
0F001E00
0F001E00
0F001E00
0F001E00
0F001E00
0F001E00
ENDCHAR
STARTCHAR 2013
ENCODING 8211
SWIDTH 538 0
DWIDTH 28 0
BBX 24 4 2 12
BITMAP
FFFFFF
FFFFFF
FFFFFF
FFFFFF
ENDCHAR
STARTCHAR 2014
ENCODING 8212
SWIDTH 807 0
DWIDTH 42 0
BBX 41 4 0 12
BITMAP
FFFFFFFFFF80
FFFFFFFFFF80
FFFFFFFFFF80
FFFFFFFFFF80
ENDCHAR
STARTCHAR 2018
ENCODING 8216
SWIDTH 230 0
DWIDTH 12 0
BBX 5 10 3 26
BITMAP
38
78
E0
E0
E0
F8
F8
F8
F8
F8
ENDCHAR
STARTCHAR 2019
ENCODING 8217
SWIDTH 230 0
DWIDTH 12 0
BBX 5 11 3 24
BITMAP
78
78
78
78
78
18
18
18
78
F0
E0
ENDCHAR
STARTCHAR 201A
ENCODING 8218
SWIDTH 230 0
DWIDTH 12 0
BBX 5 11 3 -6
BITMAP
78
78
78
78
78
18
18
18
F8
F0
E0
ENDCHAR
STARTCHAR 201C
ENCODING 8220
SWIDTH 384 0
DWIDTH 20 0
BBX 14 10 3 26
BITMAP
383C
787C
E0E0
E0E0
E0E0
F8F8
F8F8
F8F8
F8F8
F8F8
ENDCHAR
STARTCHAR 201D
ENCODING 8221
SWIDTH 384 0
DWIDTH 20 0
BBX 14 11 3 24
BITMAP
787C
787C
787C
787C
787C
181C
181C
181C
787C
F0F8
E0F0
ENDCHAR
STARTCHAR 201E
ENCODING 8222
SWIDTH 384 0
DWIDTH 20 0
BBX 14 11 3 -6
BITMAP
787C
787C
787C
787C
787C
181C
181C
181C
F8FC
F0F8
E0F0
ENDCHAR
STARTCHAR 2020
ENCODING 8224
SWIDTH 442 0
DWIDTH 23 0
BBX 20 40 2 -5
BITMAP
00F000
00F000
00F000
00F000
00F000
00F000
00F000
00F000
FFFFF0
FFFFF0
FFFFF0
00F000
00F000
00F000
00F000
00F000
00F000
00F000
00F000
00F000
00F000
00F000
00F000
00F000
00F000
00F000
00F000
00F000
00F000
00F000
00F000
00F000
00F000
00F000
00F000
00F000
00F000
00F000
00F000
00F000
ENDCHAR
STARTCHAR 2021
ENCODING 8225
SWIDTH 442 0
DWIDTH 23 0
BBX 20 40 2 -5
BITMAP
00F000
00F000
00F000
00F000
00F000
00F000
00F000
00F000
FFFFF0
FFFFF0
FFFFF0
00F000
00F000
00F000
00F000
00F000
00F000
00F000
00F000
00F000
00F000
00F000
00F000
00F000
00F000
00F000
00F000
00F000
00F000
FFFFF0
FFFFF0
FFFFF0
00F000
00F000
00F000
00F000
00F000
00F000
00F000
00F000
ENDCHAR
STARTCHAR 2022
ENCODING 8226
SWIDTH 673 0
DWIDTH 35 0
BBX 14 14 10 7
BITMAP
0FC0
1FE0
3FF0
7FF8
FFFC
FFFC
FFFC
FFFC
FFFC
FFFC
7FF8
3FF0
1FE0
0FC0
ENDCHAR
STARTCHAR 2026
ENCODING 8230
SWIDTH 634 0
DWIDTH 33 0
BBX 27 5 3 0
BITMAP
F81F03E0
F81F03E0
F81F03E0
F81F03E0
F81F03E0
ENDCHAR
STARTCHAR 2030
ENCODING 8240
SWIDTH 1288 0
DWIDTH 67 0
BBX 63 30 2 0
BITMAP
1FFE001E00000000
7FFF001C00000000
7FFF803C00000000
F003C03800000000
E001C07800000000
E001C07000000000
E001C0E000000000
E001C1E000000000
E001C1C000000000
E001C3C000000000
E001C38000000000
E001C78000000000
E001C71FFE00FFF0
E001CF7FFF03FFF8
F003CE7FFF83FFFC
7FFF9CF003C7801E
3FFFBCE001C7000E
1FFE38E001C7000E
000078E001C7000E
000070E001C7000E
0000F0E001C7000E
0000E0E001C7000E
0001E0E001C7000E
0001C0E001C7000E
000380E001C7000E
000380E001C7000E
000700F003C7801E
000F007FFF83FFFC
000E003FFF81FFFC
001E001FFE00FFF0
ENDCHAR
STARTCHAR 2039
ENCODING 8249
SWIDTH 288 0
DWIDTH 15 0
BBX 9 24 3 4
BITMAP
0600
0700
0F00
0F00
1E00
1E00
3C00
3C00
7800
7800
F000
F000
F000
7800
7800
3C00
3C00
1E00
1E00
0F00
0F00
0780
0700
0200
ENDCHAR
STARTCHAR 203A
ENCODING 8250
SWIDTH 288 0
DWIDTH 15 0
BBX 9 23 3 3
BITMAP
3000
7800
7800
3C00
3C00
1E00
1E00
0F00
0F00
0700
0780
0780
0780
0F00
0F00
1E00
1E00
3C00
3C00
7800
7800
F000
7000
ENDCHAR
STARTCHAR 20A3
ENCODING 8355
SWIDTH 653 0
DWIDTH 34 0
BBX 28 30 4 0
BITMAP
FFFF0000
FFFF0000
FFFF0000
FFFF0000
F0000000
F0000000
F0000000
F0000000
F0000000
F0000000
F0000000
F0000000
F003DF80
FFF3FFE0
FFF3FFE0
FFF3F1F0
F003E0F0
F003C0F0
F003C0F0
F003C000
F003C000
F003C000
F003C000
F003C000
F003C000
F003C000
F003C000
F003C000
F003C000
F003C000
ENDCHAR
STARTCHAR 20AC
ENCODING 8364
SWIDTH 500 0
DWIDTH 26 0
BBX 20 34 2 -1
BITMAP
00FFC0
03FFE0
07FFE0
07C040
0F0000
0F0000
1F0000
1E0000
1E0000
1E0000
1E0000
1E0000
7FFF80
7FFF80
FFFF00
1E0000
1E0000
1E0000
7FFE00
7FFE00
FFFC00
1E0000
1E0000
1E0000
1E0000
1E0000
1F0000
0F0000
0F0000
0FC020
07FFF0
03FFF0
01FFE0
001E00
ENDCHAR
STARTCHAR 2122
ENCODING 8482
SWIDTH 865 0
DWIDTH 45 0
BBX 39 20 3 15
BITMAP
FFFE3E003E
FFFE3E003E
FFFE3E003E
03803F007E
03803F007E
03803F80FE
03803B80EE
03803B80EE
03803BC1EE
038039C1CE
038039E3CE
038038E38E
038038E38E
038038F78E
038038770E
0380387F0E
0380383E0E
0380383E0E
0380383E0E
0380381C0E
ENDCHAR
STARTCHAR 2126
ENCODING 8486
SWIDTH 673 0
DWIDTH 35 0
BBX 32 36 1 0
BITMAP
000FF000
007FFE00
01FFFF80
03FFFFC0
07F81FE0
0FC003F0
1F8001F8
3F0000F8
3E00007C
7C00003E
7C00003E
7800001E
F800001F
F000001F
F000000F
F000000F
F000000F
F000000F
F000000F
F000000F
F000000F
7000000E
7800001E
7800001E
3C00003C
1C00003C
1E000078
0F000070
078000E0
03C001C0
01E00380
00780F00
FFFC1FFF
FFFC1FFF
FFFC1FFF
FFFC1FFF
ENDCHAR
STARTCHAR 2202
ENCODING 8706
SWIDTH 500 0
DWIDTH 26 0
BBX 22 35 2 0
BITMAP
180000
1F8000
1FE000
1FF800
01FC00
007E00
001F00
000F80
0003C0
0001E0
0001E0
0000F0
00FC70
07FF78
0FFFF8
1F83F8
3E01F8
7C00FC
78007C
78007C
F0003C
F0003C
F0003C
F0003C
F0003C
F0003C
F0003C
780078
780078
3C00F0
3E01F0
1F87E0
0FFFC0
07FF00
00FC00
ENDCHAR
STARTCHAR 2206
ENCODING 8710
SWIDTH 615 0
DWIDTH 32 0
BBX 31 35 1 0
BITMAP
00078000
0007C000
000FC000
000FE000
001FE000
001EE000
001CF000
003CF000
00387800
00787800
00783800
00703C00
00F03C00
00E01E00
01E01E00
01E00E00
01C00F00
03C00F00
03800780
07800780
07800380
070003C0
0F0003C0
0E0001C0
1E0001E0
1E0000E0
1C0000F0
3C0000F0
38000070
78000078
78000038
7FFFFFFC
FFFFFFFC
FFFFFFFC
FFFFFFFE
ENDCHAR
STARTCHAR 220F
ENCODING 8719
SWIDTH 673 0
DWIDTH 35 0
BBX 32 52 1 -13
BITMAP
FFFFFFFF
FFFFFFFF
FFFFFFFF
0F0000F0
0F0000F0
0F0000F0
0F0000F0
0F0000F0
0F0000F0
0F0000F0
0F0000F0
0F0000F0
0F0000F0
0F0000F0
0F0000F0
0F0000F0
0F0000F0
0F0000F0
0F0000F0
0F0000F0
0F0000F0
0F0000F0
0F0000F0
0F0000F0
0F0000F0
0F0000F0
0F0000F0
0F0000F0
0F0000F0
0F0000F0
0F0000F0
0F0000F0
0F0000F0
0F0000F0
0F0000F0
0F0000F0
0F0000F0
0F0000F0
0F0000F0
0F0000F0
0F0000F0
0F0000F0
0F0000F0
0F0000F0
0F0000F0
0F0000F0
0F0000F0
0F0000F0
0F0000F0
FFF007FF
FFF007FF
FFF007FF
ENDCHAR
STARTCHAR 2211
ENCODING 8721
SWIDTH 673 0
DWIDTH 35 0
BBX 30 52 2 -13
BITMAP
FFFFFFF8
FFFFFFF8
FFFFFFF8
FFFFFFF8
F8000078
78000078
7C000078
3C000078
3E000078
1F000078
0F000078
0F800078
07C00000
03C00000
03E00000
01E00000
01F00000
00F80000
00780000
007C0000
003C0000
003E0000
001F0000
000F0000
000F8000
000F8000
000F0000
001F0000
001E0000
003E0000
007C0000
007C0000
00F80000
00F00000
01F00000
01E00000
03E00000
03C00000
07C00000
0F800000
0F80003C
1F00003C
1E00003C
3E00003C
3C00003C
7C00003C
7800003C
F800003C
FFFFFFFC
FFFFFFFC
FFFFFFFC
FFFFFFFC
ENDCHAR
STARTCHAR 2212
ENCODING 8722
SWIDTH 519 0
DWIDTH 27 0
BBX 24 3 2 13
BITMAP
FFFFFF
FFFFFF
FFFFFF
ENDCHAR
STARTCHAR 2215
ENCODING 8725
SWIDTH 153 0
DWIDTH 8 0
BBX 20 30 -6 0
BITMAP
0000F0
0000E0
0001E0
0001C0
0003C0
000380
000700
000F00
000E00
001E00
001C00
003C00
003800
007800
007000
00E000
00E000
01C000
03C000
038000
078000
070000
0F0000
0E0000
1C0000
1C0000
380000
780000
700000
F00000
ENDCHAR
STARTCHAR 2219
ENCODING 8729
SWIDTH 211 0
DWIDTH 11 0
BBX 5 5 3 12
BITMAP
F8
F8
F8
F8
F8
ENDCHAR
STARTCHAR 221A
ENCODING 8730
SWIDTH 673 0
DWIDTH 35 0
BBX 35 43 0 0
BITMAP
000003FFE0
000007FFE0
000007FFE0
0000078000
0000070000
00000F0000
00000F0000
00000F0000
00001E0000
00001E0000
00001E0000
00001C0000
00003C0000
00003C0000
0000380000
0000780000
0000780000
0000780000
0000F00000
0000F00000
0000F00000
0000E00000
0001E00000
0001E00000
FE01C00000
FE03C00000
FE03C00000
0F03C00000
0707800000
0707800000
0787800000
0787000000
038F000000
038F000000
03CF000000
01DE000000
01DE000000
01FE000000
01FC000000
00FC000000
00FC000000
00F8000000
0078000000
ENDCHAR
STARTCHAR 221E
ENCODING 8734
SWIDTH 673 0
DWIDTH 35 0
BBX 33 15 1 7
BITMAP
07C003F000
1FF00FFC00
3FFC1FFE00
7C3E3C1F00
F00F780700
E007F00380
E003E00380
E001C00380
E003E00380
E007F00380
700F780700
7C3E3C1F00
3FFC1FFE00
1FF80FFC00
07E003F000
ENDCHAR
STARTCHAR 222B
ENCODING 8747
SWIDTH 500 0
DWIDTH 26 0
BBX 16 52 5 -13
BITMAP
003F
00FF
01FE
01FE
03E0
03C0
03C0
03C0
03C0
03C0
03C0
03C0
03C0
03C0
03C0
03C0
03C0
03C0
03C0
03C0
03C0
03C0
03C0
03C0
03C0
03C0
03C0
03C0
03C0
03C0
03C0
03C0
03C0
03C0
03C0
03C0
03C0
03C0
03C0
03C0
03C0
03C0
03C0
03C0
03C0
03C0
03C0
07C0
7F80
7F80
FF00
FC00
ENDCHAR
STARTCHAR 2248
ENCODING 8776
SWIDTH 500 0
DWIDTH 26 0
BBX 24 17 1 6
BITMAP
0F8002
1FE007
3FF807
7FFE1F
F87FFE
E01FFC
E007F8
0001F0
000000
0F8002
1FE007
3FF807
7FFE1F
F87FFE
E01FFC
C007F8
0001F0
ENDCHAR
STARTCHAR 2260
ENCODING 8800
SWIDTH 519 0
DWIDTH 27 0
BBX 24 22 2 4
BITMAP
000040
000060
0000F0
0001E0
0001E0
FFFFFF
FFFFFF
FFFFFF
000F00
001E00
003C00
003C00
007800
00F000
FFFFFF
FFFFFF
FFFFFF
078000
078000
0F0000
060000
020000
ENDCHAR
STARTCHAR 2264
ENCODING 8804
SWIDTH 500 0
DWIDTH 26 0
BBX 22 27 2 2
BITMAP
00000C
00003C
0001FC
0007FC
003FF0
00FF80
07FE00
1FF000
7FC000
FE0000
F80000
FE0000
FF8000
1FF000
07FC00
00FF80
003FE0
000FFC
0001FC
00007C
00000C
000000
000000
FFFFFC
FFFFFC
FFFFFC
FFFFFC
ENDCHAR
STARTCHAR 2265
ENCODING 8805
SWIDTH 500 0
DWIDTH 26 0
BBX 22 27 2 2
BITMAP
C00000
F00000
FE0000
FF8000
3FF000
07FC00
01FF80
003FE0
000FF8
0001FC
00007C
0001FC
0007FC
003FE0
00FF80
07FC00
1FF000
FFC000
FE0000
F80000
C00000
000000
000000
FFFFFC
FFFFFC
FFFFFC
FFFFFC
ENDCHAR
STARTCHAR 25CA
ENCODING 9674
SWIDTH 673 0
DWIDTH 35 0
BBX 27 37 4 -1
BITMAP
00040000
000C0000
001E0000
001F0000
003F8000
007B8000
0071C000
00E1E000
01E0E000
03C07000
03803800
07003C00
0F001C00
0E000E00
1C000700
38000780
78000380
700001C0
E00001E0
F00001C0
700003C0
38000780
1C000700
1E000E00
0E001E00
07001C00
03803800
03C07000
01C0F000
00E0E000
00F1C000
0073C000
003B8000
001F0000
001E0000
000E0000
00040000
ENDCHAR
STARTCHAR F000
ENCODING 61440
SWIDTH 673 0
DWIDTH 35 0
BBX 31 37 2 -1
BITMAP
00000600
00001E00
00003E00
00007C00
0000FC00
0000F800
0000F800
0001F000
0001C000
03F81FC0
0FFFFFF0
1FFFFFFC
3FFFFFFC
3FFFFFF8
7FFFFFF0
7FFFFFE0
FFFFFFE0
FFFFFFC0
FFFFFFC0
FFFFFFC0
FFFFFFC0
FFFFFFC0
FFFFFFE0
FFFFFFE0
7FFFFFF0
7FFFFFF8
7FFFFFFC
7FFFFFFE
3FFFFFFE
3FFFFFFC
1FFFFFFC
1FFFFFF8
0FFFFFF8
07FFFFF0
03FFFFE0
01FFFFC0
00F80F80
ENDCHAR
STARTCHAR F001
ENCODING 61441
SWIDTH 673 0
DWIDTH 35 0
BBX 28 30 4 0
BITMAP
FFFFE0F0
FFFFE0F0
FFFFE0F0
FFFFE0F0
F00000F0
F00000F0
F00000F0
F00000F0
F00000F0
F00000F0
F00000F0
F00000F0
F00000F0
FFFFE0F0
FFFFE0F0
FFFFE0F0
FFFFE0F0
F00000F0
F00000F0
F00000F0
F00000F0
F00000F0
F00000F0
F00000F0
F00000F0
F00000F0
F00000F0
F00000F0
F00000F0
F00000F0
ENDCHAR
STARTCHAR F002
ENCODING 61442
SWIDTH 923 0
DWIDTH 48 0
BBX 43 30 4 0
BITMAP
FFFFE0F00000
FFFFE0F00000
FFFFE0F00000
FFFFE0F00000
F00000F00000
F00000F00000
F00000F00000
F00000F00000
F00000F00000
F00000F00000
F00000F00000
F00000F00000
F00000F00000
FFFFE0F00000
FFFFE0F00000
FFFFE0F00000
FFFFE0F00000
F00000F00000
F00000F00000
F00000F00000
F00000F00000
F00000F00000
F00000F00000
F00000F00000
F00000F00000
F00000F00000
F00000FFFFE0
F00000FFFFE0
F00000FFFFE0
F00000FFFFE0
ENDCHAR
ENDFONT
